<?xml version="1.0" encoding="utf-8"?>
<!-- created with bpmn-js / http://bpmn.io -->
<!DOCTYPE svg PUBLIC "-//W3C//DTD SVG 1.1//EN" "http://www.w3.org/Graphics/SVG/1.1/DTD/svg11.dtd">
<svg xmlns="http://www.w3.org/2000/svg" xmlns:xlink="http://www.w3.org/1999/xlink" width="1632.199951171875" height="240" viewBox="32.79999923706055 35 1632.199951171875 240" version="1.1"><g class="djs-group"><g class="djs-element djs-shape" data-element-id="Participant_NW_Q_SCOPE_A_Process" transform="matrix(1 0 0 1 40 40)" style="display: block;"><g class="djs-visual"><rect x="0" y="0" width="1620" height="230" rx="0" ry="0" style="stroke-linecap: round; stroke-linejoin: round; stroke: rgb(34, 36, 42); stroke-width: 1.5px; fill: white; fill-opacity: 0.95;"/><path style="fill: none; stroke-linecap: round; stroke-linejoin: round; stroke: rgb(34, 36, 42); stroke-width: 1.5px;" d="M30,0L30,230"/><text lineHeight="1.2" class="djs-label" transform="matrix(-1.83697e-16 -1 1 -1.83697e-16 0 230)" style="font-family: Arial, 'Apple SD Gothic Neo', 'Malgun Gothic', sans-serif; font-size: 14px; font-weight: normal; fill: rgb(34, 36, 42);"><tspan x="8.891845703125" y="10.8">Artwork 업무 요청 내용과 해당 품목의 </tspan><tspan x="24.22991943359375" y="27.6">대상 자재를 확인한다 · 현재 업무</tspan></text></g><rect class="djs-hit djs-hit-no-move" x="0" y="0" width="1620" height="230" style="fill: none; stroke-opacity: 0; stroke: white; stroke-width: 15px;"/><rect class="djs-hit djs-hit-click-stroke" x="0" y="0" width="1620" height="230" style="fill: none; stroke-opacity: 0; stroke: white; stroke-width: 15px;"/><rect class="djs-hit djs-hit-all" x="0" y="0" width="30" height="230" style="fill: none; stroke-opacity: 0; stroke: white; stroke-width: 15px;"/></g><g class="djs-children"><g class="djs-group"><g class="djs-element djs-shape" data-element-id="Lane_NW_Q_SCOPE_A_Process_R0" transform="matrix(1 0 0 1 70 40)" style="display: block;"><g class="djs-visual"><rect x="0" y="0" width="1590" height="230" rx="0" ry="0" style="stroke-linecap: round; stroke-linejoin: round; stroke: rgb(34, 36, 42); stroke-width: 1.5px; fill: white; fill-opacity: 0.25;"/><text lineHeight="1.2" class="djs-label" transform="matrix(-1.83697e-16 -1 1 -1.83697e-16 0 230)" style="font-family: Arial, 'Apple SD Gothic Neo', 'Malgun Gothic', sans-serif; font-size: 14px; font-weight: normal; fill: rgb(34, 36, 42);"><tspan x="98.83123779296875" y="19.2">QS팀</tspan></text></g><rect class="djs-hit djs-hit-no-move" x="0" y="0" width="1590" height="230" style="fill: none; stroke-opacity: 0; stroke: white; stroke-width: 15px;"/><rect class="djs-hit djs-hit-click-stroke" x="0" y="0" width="1590" height="230" style="fill: none; stroke-opacity: 0; stroke: white; stroke-width: 15px;"/><rect class="djs-hit djs-hit-all" x="0" y="0" width="30" height="230" style="fill: none; stroke-opacity: 0; stroke: white; stroke-width: 15px;"/></g></g><g class="djs-group"><g class="djs-element djs-shape" data-element-id="NW_Q_SCOPE_A00" transform="matrix(1 0 0 1 225 105)" style="display: block;"><g class="djs-visual"><circle cx="20" cy="20" r="20" style="stroke-linecap: round; stroke-linejoin: round; stroke: rgb(34, 36, 42); stroke-width: 2px; fill: white; fill-opacity: 0.95;"/></g><rect class="djs-hit djs-hit-all" x="0" y="0" width="40" height="40" style="fill: none; stroke-opacity: 0; stroke: white; stroke-width: 15px;"/></g></g><g class="djs-group"><g class="djs-element djs-shape" data-element-id="NW_Q_SCOPE_A00_label" transform="matrix(1 0 0 1 152 153)" style="display: block;"><g class="djs-visual"><text lineHeight="1.2" class="djs-label" style="font-family: Arial, 'Apple SD Gothic Neo', 'Malgun Gothic', sans-serif; font-size: 14px; font-weight: normal; fill: rgb(34, 36, 42);"><tspan x="0.4508056640625" y="12.600000000000001">이 업무에 필요한 자료를 확인한다</tspan></text></g><rect class="djs-hit djs-hit-all" x="0" y="0" width="186" height="17" style="fill: none; stroke-opacity: 0; stroke: white; stroke-width: 15px;"/></g></g><g class="djs-group"><g class="djs-element djs-shape" data-element-id="NW_Q_SCOPE_A01" transform="matrix(1 0 0 1 440 75)" style="display: block;"><g class="djs-visual"><rect x="0" y="0" width="210" height="100" rx="10" ry="10" style="stroke-linecap: round; stroke-linejoin: round; stroke: rgb(34, 36, 42); stroke-width: 2px; fill: white; fill-opacity: 0.95;"/><text lineHeight="1.2" class="djs-label" style="font-family: Arial, 'Apple SD Gothic Neo', 'Malgun Gothic', sans-serif; font-size: 14px; font-weight: normal; fill: rgb(34, 36, 42);"><tspan x="12.4508056640625" y="54.2">요청 품목과 작업 내용을 확인한다</tspan></text><path d="m 15,12 c 0.909,-0.845 1.594,-2.049 1.594,-3.385 0,-2.554 -1.805,-4.62199999 -4.357,-4.62199999 -2.55199998,0 -4.28799998,2.06799999 -4.28799998,4.62199999 0,1.348 0.974,2.562 1.89599998,3.405 -0.52899998,0.187 -5.669,2.097 -5.794,4.7560005 v 6.718 h 17 v -6.718 c 0,-2.2980005 -5.5279996,-4.5950005 -6.0509996,-4.7760005 zm -8,6 l 0,5.5 m 11,0 l 0,-5" style="fill: white; stroke-linecap: round; stroke-linejoin: round; stroke: rgb(34, 36, 42); stroke-width: 0.5px;"/><path d="m 15,12 m 2.162,1.009 c 0,2.4470005 -2.158,4.4310005 -4.821,4.4310005 -2.66499998,0 -4.822,-1.981 -4.822,-4.4310005 " style="fill: white; stroke-linecap: round; stroke-linejoin: round; stroke: rgb(34, 36, 42); stroke-width: 0.5px;"/><path d="m 15,12 m -6.9,-3.80 c 0,0 2.25099998,-2.358 4.27399998,-1.177 2.024,1.181 4.221,1.537 4.124,0.965 -0.098,-0.57 -0.117,-3.79099999 -4.191,-4.13599999 -3.57499998,0.001 -4.20799998,3.36699999 -4.20699998,4.34799999 z" style="fill: rgb(34, 36, 42); stroke-linecap: round; stroke-linejoin: round; stroke: rgb(34, 36, 42); stroke-width: 0.5px;"/></g><rect class="djs-hit djs-hit-all" x="0" y="0" width="210" height="100" style="fill: none; stroke-opacity: 0; stroke: white; stroke-width: 15px;"/></g></g><g class="djs-group"><g class="djs-element djs-shape" data-element-id="NW_Q_SCOPE_A02" transform="matrix(1 0 0 1 740 75)" style="display: block;"><g class="djs-visual"><rect x="0" y="0" width="210" height="100" rx="10" ry="10" style="stroke-linecap: round; stroke-linejoin: round; stroke: rgb(34, 36, 42); stroke-width: 2px; fill: white; fill-opacity: 0.95;"/><text lineHeight="1.2" class="djs-label" style="font-family: Arial, 'Apple SD Gothic Neo', 'Malgun Gothic', sans-serif; font-size: 14px; font-weight: normal; fill: rgb(34, 36, 42);"><tspan x="28.450439453125" y="54.2">작업할 표시자재를 확인한다</tspan></text><path d="m 15,12 c 0.909,-0.845 1.594,-2.049 1.594,-3.385 0,-2.554 -1.805,-4.62199999 -4.357,-4.62199999 -2.55199998,0 -4.28799998,2.06799999 -4.28799998,4.62199999 0,1.348 0.974,2.562 1.89599998,3.405 -0.52899998,0.187 -5.669,2.097 -5.794,4.7560005 v 6.718 h 17 v -6.718 c 0,-2.2980005 -5.5279996,-4.5950005 -6.0509996,-4.7760005 zm -8,6 l 0,5.5 m 11,0 l 0,-5" style="fill: white; stroke-linecap: round; stroke-linejoin: round; stroke: rgb(34, 36, 42); stroke-width: 0.5px;"/><path d="m 15,12 m 2.162,1.009 c 0,2.4470005 -2.158,4.4310005 -4.821,4.4310005 -2.66499998,0 -4.822,-1.981 -4.822,-4.4310005 " style="fill: white; stroke-linecap: round; stroke-linejoin: round; stroke: rgb(34, 36, 42); stroke-width: 0.5px;"/><path d="m 15,12 m -6.9,-3.80 c 0,0 2.25099998,-2.358 4.27399998,-1.177 2.024,1.181 4.221,1.537 4.124,0.965 -0.098,-0.57 -0.117,-3.79099999 -4.191,-4.13599999 -3.57499998,0.001 -4.20799998,3.36699999 -4.20699998,4.34799999 z" style="fill: rgb(34, 36, 42); stroke-linecap: round; stroke-linejoin: round; stroke: rgb(34, 36, 42); stroke-width: 0.5px;"/></g><rect class="djs-hit djs-hit-all" x="0" y="0" width="210" height="100" style="fill: none; stroke-opacity: 0; stroke: white; stroke-width: 15px;"/></g></g><g class="djs-group"><g class="djs-element djs-shape" data-element-id="NW_Q_SCOPE_A03" transform="matrix(1 0 0 1 1040 75)" style="display: block;"><g class="djs-visual"><rect x="0" y="0" width="210" height="100" rx="10" ry="10" style="stroke-linecap: round; stroke-linejoin: round; stroke: rgb(34, 36, 42); stroke-width: 2px; fill: white; fill-opacity: 0.95;"/><text lineHeight="1.2" class="djs-label" style="font-family: Arial, 'Apple SD Gothic Neo', 'Malgun Gothic', sans-serif; font-size: 14px; font-weight: normal; fill: rgb(34, 36, 42);"><tspan x="18.50579833984375" y="45.800000000000004">자재마다 확보 자료와 추가 필요 </tspan><tspan x="60.67022705078125" y="62.60000000000001">자료를 정리한다</tspan></text><path d="m 15,12 c 0.909,-0.845 1.594,-2.049 1.594,-3.385 0,-2.554 -1.805,-4.62199999 -4.357,-4.62199999 -2.55199998,0 -4.28799998,2.06799999 -4.28799998,4.62199999 0,1.348 0.974,2.562 1.89599998,3.405 -0.52899998,0.187 -5.669,2.097 -5.794,4.7560005 v 6.718 h 17 v -6.718 c 0,-2.2980005 -5.5279996,-4.5950005 -6.0509996,-4.7760005 zm -8,6 l 0,5.5 m 11,0 l 0,-5" style="fill: white; stroke-linecap: round; stroke-linejoin: round; stroke: rgb(34, 36, 42); stroke-width: 0.5px;"/><path d="m 15,12 m 2.162,1.009 c 0,2.4470005 -2.158,4.4310005 -4.821,4.4310005 -2.66499998,0 -4.822,-1.981 -4.822,-4.4310005 " style="fill: white; stroke-linecap: round; stroke-linejoin: round; stroke: rgb(34, 36, 42); stroke-width: 0.5px;"/><path d="m 15,12 m -6.9,-3.80 c 0,0 2.25099998,-2.358 4.27399998,-1.177 2.024,1.181 4.221,1.537 4.124,0.965 -0.098,-0.57 -0.117,-3.79099999 -4.191,-4.13599999 -3.57499998,0.001 -4.20799998,3.36699999 -4.20699998,4.34799999 z" style="fill: rgb(34, 36, 42); stroke-linecap: round; stroke-linejoin: round; stroke: rgb(34, 36, 42); stroke-width: 0.5px;"/></g><rect class="djs-hit djs-hit-all" x="0" y="0" width="210" height="100" style="fill: none; stroke-opacity: 0; stroke: white; stroke-width: 15px;"/></g></g><g class="djs-group"><g class="djs-element djs-shape" data-element-id="NW_Q_SCOPE_A04" transform="matrix(1 0 0 1 1425 105)" style="display: block;"><g class="djs-visual"><circle cx="20" cy="20" r="20" style="stroke-linecap: round; stroke-linejoin: round; stroke: rgb(34, 36, 42); stroke-width: 4px; fill: white; fill-opacity: 0.95;"/></g><rect class="djs-hit djs-hit-all" x="0" y="0" width="40" height="40" style="fill: none; stroke-opacity: 0; stroke: white; stroke-width: 15px;"/></g></g><g class="djs-group"><g class="djs-element djs-shape" data-element-id="NW_Q_SCOPE_A04_label" transform="matrix(1 0 0 1 1344 153)" style="display: block;"><g class="djs-visual"><text lineHeight="1.2" class="djs-label" style="font-family: Arial, 'Apple SD Gothic Neo', 'Malgun Gothic', sans-serif; font-size: 14px; font-weight: normal; fill: rgb(34, 36, 42);"><tspan x="0.45098876953125" y="12.600000000000001">확인한 요청 내용과 자재별 자료 목록</tspan></text></g><rect class="djs-hit djs-hit-all" x="0" y="0" width="202" height="17" style="fill: none; stroke-opacity: 0; stroke: white; stroke-width: 15px;"/></g></g><g class="djs-group"><g class="djs-element djs-connection" data-element-id="NW_Q_SCOPE_AF01" style="display: block;"><g class="djs-visual"><defs><marker id="marker-cwc4cto3ylpqi4zk2osjkao3d" viewBox="0 0 20 20" refX="11" refY="10" markerWidth="10" markerHeight="10" orient="auto"><path d="M 1 5 L 11 10 L 1 15 Z" style="stroke-linecap: round; stroke-linejoin: round; stroke: rgb(34, 36, 42); stroke-width: 1px; fill: rgb(34, 36, 42);"/></marker></defs><path data-corner-radius="5" style="fill: none; stroke-linecap: round; stroke-linejoin: round; stroke: rgb(34, 36, 42); stroke-width: 2px; marker-end: url('#marker-cwc4cto3ylpqi4zk2osjkao3d');" d="M265,125L440,125"/></g><path d="M265,125L440,125" class="djs-hit djs-hit-stroke" style="fill: none; stroke-opacity: 0; stroke: white; stroke-width: 15px;"/></g></g><g class="djs-group"><g class="djs-element djs-connection" data-element-id="NW_Q_SCOPE_AF02" style="display: block;"><g class="djs-visual"><defs><marker id="marker-1bxt6t37aylmbug4aawmjcq30" viewBox="0 0 20 20" refX="11" refY="10" markerWidth="10" markerHeight="10" orient="auto"><path d="M 1 5 L 11 10 L 1 15 Z" style="stroke-linecap: round; stroke-linejoin: round; stroke: rgb(34, 36, 42); stroke-width: 1px; fill: rgb(34, 36, 42);"/></marker></defs><path data-corner-radius="5" style="fill: none; stroke-linecap: round; stroke-linejoin: round; stroke: rgb(34, 36, 42); stroke-width: 2px; marker-end: url('#marker-1bxt6t37aylmbug4aawmjcq30');" d="M650,125L740,125"/></g><path d="M650,125L740,125" class="djs-hit djs-hit-stroke" style="fill: none; stroke-opacity: 0; stroke: white; stroke-width: 15px;"/></g></g><g class="djs-group"><g class="djs-element djs-connection" data-element-id="NW_Q_SCOPE_AF03" style="display: block;"><g class="djs-visual"><defs><marker id="marker-a67nq4mxay2lnyyyq4k7upyr6" viewBox="0 0 20 20" refX="11" refY="10" markerWidth="10" markerHeight="10" orient="auto"><path d="M 1 5 L 11 10 L 1 15 Z" style="stroke-linecap: round; stroke-linejoin: round; stroke: rgb(34, 36, 42); stroke-width: 1px; fill: rgb(34, 36, 42);"/></marker></defs><path data-corner-radius="5" style="fill: none; stroke-linecap: round; stroke-linejoin: round; stroke: rgb(34, 36, 42); stroke-width: 2px; marker-end: url('#marker-a67nq4mxay2lnyyyq4k7upyr6');" d="M950,125L1040,125"/></g><path d="M950,125L1040,125" class="djs-hit djs-hit-stroke" style="fill: none; stroke-opacity: 0; stroke: white; stroke-width: 15px;"/></g></g><g class="djs-group"><g class="djs-element djs-connection" data-element-id="NW_Q_SCOPE_AF04" style="display: block;"><g class="djs-visual"><defs><marker id="marker-2bzaac89ygkdewvhkn16hp2et" viewBox="0 0 20 20" refX="11" refY="10" markerWidth="10" markerHeight="10" orient="auto"><path d="M 1 5 L 11 10 L 1 15 Z" style="stroke-linecap: round; stroke-linejoin: round; stroke: rgb(34, 36, 42); stroke-width: 1px; fill: rgb(34, 36, 42);"/></marker></defs><path data-corner-radius="5" style="fill: none; stroke-linecap: round; stroke-linejoin: round; stroke: rgb(34, 36, 42); stroke-width: 2px; marker-end: url('#marker-2bzaac89ygkdewvhkn16hp2et');" d="M1250,125L1425,125"/></g><path d="M1250,125L1425,125" class="djs-hit djs-hit-stroke" style="fill: none; stroke-opacity: 0; stroke: white; stroke-width: 15px;"/></g></g></g></g></svg>