<?xml version="1.0" encoding="utf-8"?>
<!-- created with bpmn-js / http://bpmn.io -->
<!DOCTYPE svg PUBLIC "-//W3C//DTD SVG 1.1//EN" "http://www.w3.org/Graphics/SVG/1.1/DTD/svg11.dtd">
<svg xmlns="http://www.w3.org/2000/svg" xmlns:xlink="http://www.w3.org/1999/xlink" width="2530" height="790" viewBox="35 35 2530 790" version="1.1"><g class="djs-group"><g class="djs-element djs-shape" data-element-id="Participant_NW_Q_REORDER_T_Process" transform="matrix(1 0 0 1 40 40)" style="display: block;"><g class="djs-visual"><rect x="0" y="0" width="2520" height="780" rx="0" ry="0" style="stroke-linecap: round; stroke-linejoin: round; stroke: rgb(34, 36, 42); stroke-width: 1.5px; fill: white; fill-opacity: 0.95;"/><path style="fill: none; stroke-linecap: round; stroke-linejoin: round; stroke: rgb(34, 36, 42); stroke-width: 1.5px;" d="M30,0L30,780"/><text lineHeight="1.2" class="djs-label" transform="matrix(-1.83697e-16 -1 1 -1.83697e-16 0 780)" style="font-family: Arial, 'Apple SD Gothic Neo', 'Malgun Gothic', sans-serif; font-size: 14px; font-weight: normal; fill: rgb(34, 36, 42);"><tspan x="205.23175048828125" y="19.2">발주할 자재와 파일을 최신 승인 Artwork와 비교한다 · 도입 후 업무</tspan></text></g><rect class="djs-hit djs-hit-no-move" x="0" y="0" width="2520" height="780" style="fill: none; stroke-opacity: 0; stroke: white; stroke-width: 15px;"/><rect class="djs-hit djs-hit-click-stroke" x="0" y="0" width="2520" height="780" style="fill: none; stroke-opacity: 0; stroke: white; stroke-width: 15px;"/><rect class="djs-hit djs-hit-all" x="0" y="0" width="30" height="780" style="fill: none; stroke-opacity: 0; stroke: white; stroke-width: 15px;"/></g><g class="djs-children"><g class="djs-group"><g class="djs-element djs-shape" data-element-id="Lane_NW_Q_REORDER_T_Process_R1" transform="matrix(1 0 0 1 70 430)" style="display: block;"><g class="djs-visual"><rect x="0" y="0" width="2490" height="390" rx="0" ry="0" style="stroke-linecap: round; stroke-linejoin: round; stroke: rgb(34, 36, 42); stroke-width: 1.5px; fill: white; fill-opacity: 0.25;"/><text lineHeight="1.2" class="djs-label" transform="matrix(-1.83697e-16 -1 1 -1.83697e-16 0 390)" style="font-family: Arial, 'Apple SD Gothic Neo', 'Malgun Gothic', sans-serif; font-size: 14px; font-weight: normal; fill: rgb(34, 36, 42);"><tspan x="176.83502197265625" y="19.2">시스템</tspan></text></g><rect class="djs-hit djs-hit-no-move" x="0" y="0" width="2490" height="390" style="fill: none; stroke-opacity: 0; stroke: white; stroke-width: 15px;"/><rect class="djs-hit djs-hit-click-stroke" x="0" y="0" width="2490" height="390" style="fill: none; stroke-opacity: 0; stroke: white; stroke-width: 15px;"/><rect class="djs-hit djs-hit-all" x="0" y="0" width="30" height="390" style="fill: none; stroke-opacity: 0; stroke: white; stroke-width: 15px;"/></g></g><g class="djs-group"><g class="djs-element djs-shape" data-element-id="Lane_NW_Q_REORDER_T_Process_R0" transform="matrix(1 0 0 1 70 40)" style="display: block;"><g class="djs-visual"><rect x="0" y="0" width="2490" height="390" rx="0" ry="0" style="stroke-linecap: round; stroke-linejoin: round; stroke: rgb(34, 36, 42); stroke-width: 1.5px; fill: white; fill-opacity: 0.25;"/><text lineHeight="1.2" class="djs-label" transform="matrix(-1.83697e-16 -1 1 -1.83697e-16 0 390)" style="font-family: Arial, 'Apple SD Gothic Neo', 'Malgun Gothic', sans-serif; font-size: 14px; font-weight: normal; fill: rgb(34, 36, 42);"><tspan x="178.83123779296875" y="19.2">QS팀</tspan></text></g><rect class="djs-hit djs-hit-no-move" x="0" y="0" width="2490" height="390" style="fill: none; stroke-opacity: 0; stroke: white; stroke-width: 15px;"/><rect class="djs-hit djs-hit-click-stroke" x="0" y="0" width="2490" height="390" style="fill: none; stroke-opacity: 0; stroke: white; stroke-width: 15px;"/><rect class="djs-hit djs-hit-all" x="0" y="0" width="30" height="390" style="fill: none; stroke-opacity: 0; stroke: white; stroke-width: 15px;"/></g></g><g class="djs-group"><g class="djs-element djs-shape" data-element-id="NW_Q_REORDER_T00" transform="matrix(1 0 0 1 225 105)" style="display: block;"><g class="djs-visual"><circle cx="20" cy="20" r="20" style="stroke-linecap: round; stroke-linejoin: round; stroke: rgb(34, 36, 42); stroke-width: 2px; fill: white; fill-opacity: 0.95;"/></g><rect class="djs-hit djs-hit-all" x="0" y="0" width="40" height="40" style="fill: none; stroke-opacity: 0; stroke: white; stroke-width: 15px;"/></g></g><g class="djs-group"><g class="djs-element djs-shape" data-element-id="NW_Q_REORDER_T00_label" transform="matrix(1 0 0 1 152 153)" style="display: block;"><g class="djs-visual"><text lineHeight="1.2" class="djs-label" style="font-family: Arial, 'Apple SD Gothic Neo', 'Malgun Gothic', sans-serif; font-size: 14px; font-weight: normal; fill: rgb(34, 36, 42);"><tspan x="0.4508056640625" y="12.600000000000001">이 업무에 필요한 자료를 확인한다</tspan></text></g><rect class="djs-hit djs-hit-all" x="0" y="0" width="186" height="17" style="fill: none; stroke-opacity: 0; stroke: white; stroke-width: 15px;"/></g></g><g class="djs-group"><g class="djs-element djs-shape" data-element-id="NW_Q_REORDER_T01" transform="matrix(1 0 0 1 518 98)" style="display: block;"><g class="djs-visual"><polygon points="27,0 54,27 27,54 0,27" style="stroke-linecap: round; stroke-linejoin: round; stroke: rgb(34, 36, 42); stroke-width: 2px; fill: white; fill-opacity: 0.95;"/><path d="m 17.28,16.2 8.022857142857143,10.491428571428573 -8.022857142857143,10.491428571428573 3.7028571428571433,0 6.171428571428573,-8.061366857142858 6.171428571428573,8.061366857142858 3.7028571428571433,0 -8.022857142857143,-10.491428571428573 8.022857142857143,-10.491428571428573 -3.7028571428571433,0 -6.171428571428573,8.061366857142858 -6.171428571428573,-8.061366857142858 -3.7028571428571433,0 z" style="fill: rgb(34, 36, 42); stroke-linecap: round; stroke-linejoin: round; stroke: rgb(34, 36, 42); stroke-width: 1px;"/></g><rect class="djs-hit djs-hit-all" x="0" y="0" width="54" height="54" style="fill: none; stroke-opacity: 0; stroke: white; stroke-width: 15px;"/></g></g><g class="djs-group"><g class="djs-element djs-shape" data-element-id="NW_Q_REORDER_T01_label" transform="matrix(1 0 0 1 447 160)" style="display: block;"><g class="djs-visual"><text lineHeight="1.2" class="djs-label" style="font-family: Arial, 'Apple SD Gothic Neo', 'Malgun Gothic', sans-serif; font-size: 14px; font-weight: normal; fill: rgb(34, 36, 42);"><tspan x="0.1129150390625" y="12.600000000000001">버전 조회인가, 받은 파일 대조인가?</tspan></text></g><rect class="djs-hit djs-hit-all" x="0" y="0" width="197" height="17" style="fill: none; stroke-opacity: 0; stroke: white; stroke-width: 15px;"/></g></g><g class="djs-group"><g class="djs-element djs-shape" data-element-id="NW_Q_REORDER_T02" transform="matrix(1 0 0 1 740 75)" style="display: block;"><g class="djs-visual"><rect x="0" y="0" width="210" height="100" rx="10" ry="10" style="stroke-linecap: round; stroke-linejoin: round; stroke: rgb(34, 36, 42); stroke-width: 2px; fill: white; fill-opacity: 0.95;"/><text lineHeight="1.2" class="djs-label" style="font-family: Arial, 'Apple SD Gothic Neo', 'Malgun Gothic', sans-serif; font-size: 14px; font-weight: normal; fill: rgb(34, 36, 42);"><tspan x="24.174560546875" y="45.800000000000004">확인할 자재의 승인 개정·변경 </tspan><tspan x="60.67022705078125" y="62.60000000000001">조회를 요청한다</tspan></text><path d="m 15,12 c 0.909,-0.845 1.594,-2.049 1.594,-3.385 0,-2.554 -1.805,-4.62199999 -4.357,-4.62199999 -2.55199998,0 -4.28799998,2.06799999 -4.28799998,4.62199999 0,1.348 0.974,2.562 1.89599998,3.405 -0.52899998,0.187 -5.669,2.097 -5.794,4.7560005 v 6.718 h 17 v -6.718 c 0,-2.2980005 -5.5279996,-4.5950005 -6.0509996,-4.7760005 zm -8,6 l 0,5.5 m 11,0 l 0,-5" style="fill: white; stroke-linecap: round; stroke-linejoin: round; stroke: rgb(34, 36, 42); stroke-width: 0.5px;"/><path d="m 15,12 m 2.162,1.009 c 0,2.4470005 -2.158,4.4310005 -4.821,4.4310005 -2.66499998,0 -4.822,-1.981 -4.822,-4.4310005 " style="fill: white; stroke-linecap: round; stroke-linejoin: round; stroke: rgb(34, 36, 42); stroke-width: 0.5px;"/><path d="m 15,12 m -6.9,-3.80 c 0,0 2.25099998,-2.358 4.27399998,-1.177 2.024,1.181 4.221,1.537 4.124,0.965 -0.098,-0.57 -0.117,-3.79099999 -4.191,-4.13599999 -3.57499998,0.001 -4.20799998,3.36699999 -4.20699998,4.34799999 z" style="fill: rgb(34, 36, 42); stroke-linecap: round; stroke-linejoin: round; stroke: rgb(34, 36, 42); stroke-width: 0.5px;"/></g><rect class="djs-hit djs-hit-all" x="0" y="0" width="210" height="100" style="fill: none; stroke-opacity: 0; stroke: white; stroke-width: 15px;"/></g></g><g class="djs-group"><g class="djs-element djs-shape" data-element-id="NW_Q_REORDER_T03" transform="matrix(1 0 0 1 740 235)" style="display: block;"><g class="djs-visual"><rect x="0" y="0" width="210" height="100" rx="10" ry="10" style="stroke-linecap: round; stroke-linejoin: round; stroke: rgb(34, 36, 42); stroke-width: 2px; fill: white; fill-opacity: 0.95;"/><text lineHeight="1.2" class="djs-label" style="font-family: Arial, 'Apple SD Gothic Neo', 'Malgun Gothic', sans-serif; font-size: 14px; font-weight: normal; fill: rgb(34, 36, 42);"><tspan x="26.505615234375" y="45.800000000000004">받은 파일을 올리거나 고르고 </tspan><tspan x="34.50543212890625" y="62.60000000000001">비교할 승인본을 확인한다</tspan></text><path d="m 15,12 c 0.909,-0.845 1.594,-2.049 1.594,-3.385 0,-2.554 -1.805,-4.62199999 -4.357,-4.62199999 -2.55199998,0 -4.28799998,2.06799999 -4.28799998,4.62199999 0,1.348 0.974,2.562 1.89599998,3.405 -0.52899998,0.187 -5.669,2.097 -5.794,4.7560005 v 6.718 h 17 v -6.718 c 0,-2.2980005 -5.5279996,-4.5950005 -6.0509996,-4.7760005 zm -8,6 l 0,5.5 m 11,0 l 0,-5" style="fill: white; stroke-linecap: round; stroke-linejoin: round; stroke: rgb(34, 36, 42); stroke-width: 0.5px;"/><path d="m 15,12 m 2.162,1.009 c 0,2.4470005 -2.158,4.4310005 -4.821,4.4310005 -2.66499998,0 -4.822,-1.981 -4.822,-4.4310005 " style="fill: white; stroke-linecap: round; stroke-linejoin: round; stroke: rgb(34, 36, 42); stroke-width: 0.5px;"/><path d="m 15,12 m -6.9,-3.80 c 0,0 2.25099998,-2.358 4.27399998,-1.177 2.024,1.181 4.221,1.537 4.124,0.965 -0.098,-0.57 -0.117,-3.79099999 -4.191,-4.13599999 -3.57499998,0.001 -4.20799998,3.36699999 -4.20699998,4.34799999 z" style="fill: rgb(34, 36, 42); stroke-linecap: round; stroke-linejoin: round; stroke: rgb(34, 36, 42); stroke-width: 0.5px;"/></g><rect class="djs-hit djs-hit-all" x="0" y="0" width="210" height="100" style="fill: none; stroke-opacity: 0; stroke: white; stroke-width: 15px;"/></g></g><g class="djs-group"><g class="djs-element djs-shape" data-element-id="NW_Q_REORDER_T02_SYS" transform="matrix(1 0 0 1 1040 465)" style="display: block;"><g class="djs-visual"><rect x="0" y="0" width="210" height="100" rx="10" ry="10" style="stroke-linecap: round; stroke-linejoin: round; stroke: rgb(34, 36, 42); stroke-width: 2px; fill: white; fill-opacity: 0.95;"/><text lineHeight="1.2" class="djs-label" style="font-family: Arial, 'Apple SD Gothic Neo', 'Malgun Gothic', sans-serif; font-size: 14px; font-weight: normal; fill: rgb(34, 36, 42);"><tspan x="16.56097412109375" y="45.800000000000004">최신 승인 개정과 진행 중 변경을 </tspan><tspan x="80.780029296875" y="62.60000000000001">보여준다</tspan></text><circle cx="5" cy="5" r="5" transform="translate(6, 6)" style="stroke-linecap: round; stroke-linejoin: round; stroke: none; stroke-width: 2px; fill: white;"/><path d="m 12,18 v -1.71335 c 0.352326,-0.0705 0.703932,-0.17838 1.047628,-0.32133 0.344416,-0.14465 0.665822,-0.32133 0.966377,-0.52145 l 1.19431,1.18005 1.567487,-1.57688 -1.195028,-1.18014 c 0.403376,-0.61394 0.683079,-1.29908 0.825447,-2.01824 l 1.622133,-0.01 v -2.2196 l -1.636514,0.01 c -0.07333,-0.35153 -0.178319,-0.70024 -0.323564,-1.04372 -0.145244,-0.34406 -0.321407,-0.6644 -0.522735,-0.96217 l 1.131035,-1.13631 -1.583305,-1.56293 -1.129598,1.13589 c -0.614052,-0.40108 -1.302883,-0.68093 -2.022633,-0.82247 l 0.0093,-1.61852 h -2.241173 l 0.0042,1.63124 c -0.353763,0.0736 -0.705369,0.17977 -1.049785,0.32371 -0.344415,0.14437 -0.665102,0.32092 -0.9635006,0.52046 l -1.1698628,-1.15823 -1.5667691,1.5792 1.1684265,1.15669 c -0.4026573,0.61283 -0.68308,1.29797 -0.8247287,2.01713 l -1.6588041,0.003 v 2.22174 l 1.6724648,-0.006 c 0.073327,0.35077 0.1797598,0.70243 0.3242851,1.04472 0.1452428,0.34448 0.3214064,0.6644 0.5227339,0.96066 l -1.1993431,1.19723 1.5840256,1.56011 1.1964668,-1.19348 c 0.6140517,0.40346 1.3028827,0.68232 2.0233517,0.82331 l 7.19e-4,1.69892 h 2.226848 z m 0.221462,-3.9957 c -1.788948,0.7502 -3.8576,-0.0928 -4.6097055,-1.87438 -0.7521065,-1.78321 0.090598,-3.84627 1.8802645,-4.59604 1.78823,-0.74936 3.856881,0.0929 4.608987,1.87437 0.752106,1.78165 -0.0906,3.84612 -1.879546,4.59605 z" style="fill: white; stroke-linecap: round; stroke-linejoin: round; stroke: rgb(34, 36, 42); stroke-width: 1px;"/><circle cx="5" cy="5" r="5" transform="translate(11, 10)" style="stroke-linecap: round; stroke-linejoin: round; stroke: none; stroke-width: 2px; fill: white;"/><path d="m 17,22 v -1.71335 c 0.352326,-0.0705 0.703932,-0.17838 1.047628,-0.32133 0.344416,-0.14465 0.665822,-0.32133 0.966377,-0.52145 l 1.19431,1.18005 1.567487,-1.57688 -1.195028,-1.18014 c 0.403376,-0.61394 0.683079,-1.29908 0.825447,-2.01824 l 1.622133,-0.01 v -2.2196 l -1.636514,0.01 c -0.07333,-0.35153 -0.178319,-0.70024 -0.323564,-1.04372 -0.145244,-0.34406 -0.321407,-0.6644 -0.522735,-0.96217 l 1.131035,-1.13631 -1.583305,-1.56293 -1.129598,1.13589 c -0.614052,-0.40108 -1.302883,-0.68093 -2.022633,-0.82247 l 0.0093,-1.61852 h -2.241173 l 0.0042,1.63124 c -0.353763,0.0736 -0.705369,0.17977 -1.049785,0.32371 -0.344415,0.14437 -0.665102,0.32092 -0.9635006,0.52046 l -1.1698628,-1.15823 -1.5667691,1.5792 1.1684265,1.15669 c -0.4026573,0.61283 -0.68308,1.29797 -0.8247287,2.01713 l -1.6588041,0.003 v 2.22174 l 1.6724648,-0.006 c 0.073327,0.35077 0.1797598,0.70243 0.3242851,1.04472 0.1452428,0.34448 0.3214064,0.6644 0.5227339,0.96066 l -1.1993431,1.19723 1.5840256,1.56011 1.1964668,-1.19348 c 0.6140517,0.40346 1.3028827,0.68232 2.0233517,0.82331 l 7.19e-4,1.69892 h 2.226848 z m 0.221462,-3.9957 c -1.788948,0.7502 -3.8576,-0.0928 -4.6097055,-1.87438 -0.7521065,-1.78321 0.090598,-3.84627 1.8802645,-4.59604 1.78823,-0.74936 3.856881,0.0929 4.608987,1.87437 0.752106,1.78165 -0.0906,3.84612 -1.879546,4.59605 z" style="fill: white; stroke-linecap: round; stroke-linejoin: round; stroke: rgb(34, 36, 42); stroke-width: 1px;"/></g><rect class="djs-hit djs-hit-all" x="0" y="0" width="210" height="100" style="fill: none; stroke-opacity: 0; stroke: white; stroke-width: 15px;"/></g></g><g class="djs-group"><g class="djs-element djs-shape" data-element-id="NW_Q_REORDER_T03_SYS" transform="matrix(1 0 0 1 1040 625)" style="display: block;"><g class="djs-visual"><rect x="0" y="0" width="210" height="100" rx="10" ry="10" style="stroke-linecap: round; stroke-linejoin: round; stroke: rgb(34, 36, 42); stroke-width: 2px; fill: white; fill-opacity: 0.95;"/><text lineHeight="1.2" class="djs-label" style="font-family: Arial, 'Apple SD Gothic Neo', 'Malgun Gothic', sans-serif; font-size: 14px; font-weight: normal; fill: rgb(34, 36, 42);"><tspan x="18.50579833984375" y="45.800000000000004">파일의 공통 항목 차이와 구버전 </tspan><tspan x="54.615234375" y="62.60000000000001">가능성을 보여준다</tspan></text><circle cx="5" cy="5" r="5" transform="translate(6, 6)" style="stroke-linecap: round; stroke-linejoin: round; stroke: none; stroke-width: 2px; fill: white;"/><path d="m 12,18 v -1.71335 c 0.352326,-0.0705 0.703932,-0.17838 1.047628,-0.32133 0.344416,-0.14465 0.665822,-0.32133 0.966377,-0.52145 l 1.19431,1.18005 1.567487,-1.57688 -1.195028,-1.18014 c 0.403376,-0.61394 0.683079,-1.29908 0.825447,-2.01824 l 1.622133,-0.01 v -2.2196 l -1.636514,0.01 c -0.07333,-0.35153 -0.178319,-0.70024 -0.323564,-1.04372 -0.145244,-0.34406 -0.321407,-0.6644 -0.522735,-0.96217 l 1.131035,-1.13631 -1.583305,-1.56293 -1.129598,1.13589 c -0.614052,-0.40108 -1.302883,-0.68093 -2.022633,-0.82247 l 0.0093,-1.61852 h -2.241173 l 0.0042,1.63124 c -0.353763,0.0736 -0.705369,0.17977 -1.049785,0.32371 -0.344415,0.14437 -0.665102,0.32092 -0.9635006,0.52046 l -1.1698628,-1.15823 -1.5667691,1.5792 1.1684265,1.15669 c -0.4026573,0.61283 -0.68308,1.29797 -0.8247287,2.01713 l -1.6588041,0.003 v 2.22174 l 1.6724648,-0.006 c 0.073327,0.35077 0.1797598,0.70243 0.3242851,1.04472 0.1452428,0.34448 0.3214064,0.6644 0.5227339,0.96066 l -1.1993431,1.19723 1.5840256,1.56011 1.1964668,-1.19348 c 0.6140517,0.40346 1.3028827,0.68232 2.0233517,0.82331 l 7.19e-4,1.69892 h 2.226848 z m 0.221462,-3.9957 c -1.788948,0.7502 -3.8576,-0.0928 -4.6097055,-1.87438 -0.7521065,-1.78321 0.090598,-3.84627 1.8802645,-4.59604 1.78823,-0.74936 3.856881,0.0929 4.608987,1.87437 0.752106,1.78165 -0.0906,3.84612 -1.879546,4.59605 z" style="fill: white; stroke-linecap: round; stroke-linejoin: round; stroke: rgb(34, 36, 42); stroke-width: 1px;"/><circle cx="5" cy="5" r="5" transform="translate(11, 10)" style="stroke-linecap: round; stroke-linejoin: round; stroke: none; stroke-width: 2px; fill: white;"/><path d="m 17,22 v -1.71335 c 0.352326,-0.0705 0.703932,-0.17838 1.047628,-0.32133 0.344416,-0.14465 0.665822,-0.32133 0.966377,-0.52145 l 1.19431,1.18005 1.567487,-1.57688 -1.195028,-1.18014 c 0.403376,-0.61394 0.683079,-1.29908 0.825447,-2.01824 l 1.622133,-0.01 v -2.2196 l -1.636514,0.01 c -0.07333,-0.35153 -0.178319,-0.70024 -0.323564,-1.04372 -0.145244,-0.34406 -0.321407,-0.6644 -0.522735,-0.96217 l 1.131035,-1.13631 -1.583305,-1.56293 -1.129598,1.13589 c -0.614052,-0.40108 -1.302883,-0.68093 -2.022633,-0.82247 l 0.0093,-1.61852 h -2.241173 l 0.0042,1.63124 c -0.353763,0.0736 -0.705369,0.17977 -1.049785,0.32371 -0.344415,0.14437 -0.665102,0.32092 -0.9635006,0.52046 l -1.1698628,-1.15823 -1.5667691,1.5792 1.1684265,1.15669 c -0.4026573,0.61283 -0.68308,1.29797 -0.8247287,2.01713 l -1.6588041,0.003 v 2.22174 l 1.6724648,-0.006 c 0.073327,0.35077 0.1797598,0.70243 0.3242851,1.04472 0.1452428,0.34448 0.3214064,0.6644 0.5227339,0.96066 l -1.1993431,1.19723 1.5840256,1.56011 1.1964668,-1.19348 c 0.6140517,0.40346 1.3028827,0.68232 2.0233517,0.82331 l 7.19e-4,1.69892 h 2.226848 z m 0.221462,-3.9957 c -1.788948,0.7502 -3.8576,-0.0928 -4.6097055,-1.87438 -0.7521065,-1.78321 0.090598,-3.84627 1.8802645,-4.59604 1.78823,-0.74936 3.856881,0.0929 4.608987,1.87437 0.752106,1.78165 -0.0906,3.84612 -1.879546,4.59605 z" style="fill: white; stroke-linecap: round; stroke-linejoin: round; stroke: rgb(34, 36, 42); stroke-width: 1px;"/></g><rect class="djs-hit djs-hit-all" x="0" y="0" width="210" height="100" style="fill: none; stroke-opacity: 0; stroke: white; stroke-width: 15px;"/></g></g><g class="djs-group"><g class="djs-element djs-shape" data-element-id="J_NW_Q_REORDER_T04" transform="matrix(1 0 0 1 1418 98)" style="display: block;"><g class="djs-visual"><polygon points="27,0 54,27 27,54 0,27" style="stroke-linecap: round; stroke-linejoin: round; stroke: rgb(34, 36, 42); stroke-width: 2px; fill: white; fill-opacity: 0.95;"/><path d="m 17.28,16.2 8.022857142857143,10.491428571428573 -8.022857142857143,10.491428571428573 3.7028571428571433,0 6.171428571428573,-8.061366857142858 6.171428571428573,8.061366857142858 3.7028571428571433,0 -8.022857142857143,-10.491428571428573 8.022857142857143,-10.491428571428573 -3.7028571428571433,0 -6.171428571428573,8.061366857142858 -6.171428571428573,-8.061366857142858 -3.7028571428571433,0 z" style="fill: rgb(34, 36, 42); stroke-linecap: round; stroke-linejoin: round; stroke: rgb(34, 36, 42); stroke-width: 1px;"/></g><rect class="djs-hit djs-hit-all" x="0" y="0" width="54" height="54" style="fill: none; stroke-opacity: 0; stroke: white; stroke-width: 15px;"/></g></g><g class="djs-group"><g class="djs-element djs-shape" data-element-id="J_NW_Q_REORDER_T04_label" transform="matrix(1 0 0 1 1419 57)" style="display: block;"><g class="djs-visual"><text lineHeight="1.2" class="djs-label" style="font-family: Arial, 'Apple SD Gothic Neo', 'Malgun Gothic', sans-serif; font-size: 14px; font-weight: normal; fill: rgb(34, 36, 42);"><tspan x="0.335205078125" y="12.600000000000001">경로 합류</tspan></text></g><rect class="djs-hit djs-hit-all" x="0" y="0" width="53" height="17" style="fill: none; stroke-opacity: 0; stroke: white; stroke-width: 15px;"/></g></g><g class="djs-group"><g class="djs-element djs-shape" data-element-id="NW_Q_REORDER_T04" transform="matrix(1 0 0 1 1640 75)" style="display: block;"><g class="djs-visual"><rect x="0" y="0" width="210" height="100" rx="10" ry="10" style="stroke-linecap: round; stroke-linejoin: round; stroke: rgb(34, 36, 42); stroke-width: 2px; fill: white; fill-opacity: 0.95;"/><text lineHeight="1.2" class="djs-label" style="font-family: Arial, 'Apple SD Gothic Neo', 'Malgun Gothic', sans-serif; font-size: 14px; font-weight: normal; fill: rgb(34, 36, 42);"><tspan x="20.50201416015625" y="45.800000000000004">QS가 차이와 수정 필요 내용을 </tspan><tspan x="60.67022705078125" y="62.60000000000001">확인해 기록한다</tspan></text><path d="m 15,12 c 0.909,-0.845 1.594,-2.049 1.594,-3.385 0,-2.554 -1.805,-4.62199999 -4.357,-4.62199999 -2.55199998,0 -4.28799998,2.06799999 -4.28799998,4.62199999 0,1.348 0.974,2.562 1.89599998,3.405 -0.52899998,0.187 -5.669,2.097 -5.794,4.7560005 v 6.718 h 17 v -6.718 c 0,-2.2980005 -5.5279996,-4.5950005 -6.0509996,-4.7760005 zm -8,6 l 0,5.5 m 11,0 l 0,-5" style="fill: white; stroke-linecap: round; stroke-linejoin: round; stroke: rgb(34, 36, 42); stroke-width: 0.5px;"/><path d="m 15,12 m 2.162,1.009 c 0,2.4470005 -2.158,4.4310005 -4.821,4.4310005 -2.66499998,0 -4.822,-1.981 -4.822,-4.4310005 " style="fill: white; stroke-linecap: round; stroke-linejoin: round; stroke: rgb(34, 36, 42); stroke-width: 0.5px;"/><path d="m 15,12 m -6.9,-3.80 c 0,0 2.25099998,-2.358 4.27399998,-1.177 2.024,1.181 4.221,1.537 4.124,0.965 -0.098,-0.57 -0.117,-3.79099999 -4.191,-4.13599999 -3.57499998,0.001 -4.20799998,3.36699999 -4.20699998,4.34799999 z" style="fill: rgb(34, 36, 42); stroke-linecap: round; stroke-linejoin: round; stroke: rgb(34, 36, 42); stroke-width: 0.5px;"/></g><rect class="djs-hit djs-hit-all" x="0" y="0" width="210" height="100" style="fill: none; stroke-opacity: 0; stroke: white; stroke-width: 15px;"/></g></g><g class="djs-group"><g class="djs-element djs-shape" data-element-id="NW_Q_REORDER_T04_SYS" transform="matrix(1 0 0 1 1940 465)" style="display: block;"><g class="djs-visual"><rect x="0" y="0" width="210" height="100" rx="10" ry="10" style="stroke-linecap: round; stroke-linejoin: round; stroke: rgb(34, 36, 42); stroke-width: 2px; fill: white; fill-opacity: 0.95;"/><text lineHeight="1.2" class="djs-label" style="font-family: Arial, 'Apple SD Gothic Neo', 'Malgun Gothic', sans-serif; font-size: 14px; font-weight: normal; fill: rgb(34, 36, 42);"><tspan x="11.729736328125" y="45.800000000000004">입력·기준·QS 판단을 이번 확인에</tspan><tspan x="80.780029296875" y="62.60000000000001">보관한다</tspan></text><circle cx="5" cy="5" r="5" transform="translate(6, 6)" style="stroke-linecap: round; stroke-linejoin: round; stroke: none; stroke-width: 2px; fill: white;"/><path d="m 12,18 v -1.71335 c 0.352326,-0.0705 0.703932,-0.17838 1.047628,-0.32133 0.344416,-0.14465 0.665822,-0.32133 0.966377,-0.52145 l 1.19431,1.18005 1.567487,-1.57688 -1.195028,-1.18014 c 0.403376,-0.61394 0.683079,-1.29908 0.825447,-2.01824 l 1.622133,-0.01 v -2.2196 l -1.636514,0.01 c -0.07333,-0.35153 -0.178319,-0.70024 -0.323564,-1.04372 -0.145244,-0.34406 -0.321407,-0.6644 -0.522735,-0.96217 l 1.131035,-1.13631 -1.583305,-1.56293 -1.129598,1.13589 c -0.614052,-0.40108 -1.302883,-0.68093 -2.022633,-0.82247 l 0.0093,-1.61852 h -2.241173 l 0.0042,1.63124 c -0.353763,0.0736 -0.705369,0.17977 -1.049785,0.32371 -0.344415,0.14437 -0.665102,0.32092 -0.9635006,0.52046 l -1.1698628,-1.15823 -1.5667691,1.5792 1.1684265,1.15669 c -0.4026573,0.61283 -0.68308,1.29797 -0.8247287,2.01713 l -1.6588041,0.003 v 2.22174 l 1.6724648,-0.006 c 0.073327,0.35077 0.1797598,0.70243 0.3242851,1.04472 0.1452428,0.34448 0.3214064,0.6644 0.5227339,0.96066 l -1.1993431,1.19723 1.5840256,1.56011 1.1964668,-1.19348 c 0.6140517,0.40346 1.3028827,0.68232 2.0233517,0.82331 l 7.19e-4,1.69892 h 2.226848 z m 0.221462,-3.9957 c -1.788948,0.7502 -3.8576,-0.0928 -4.6097055,-1.87438 -0.7521065,-1.78321 0.090598,-3.84627 1.8802645,-4.59604 1.78823,-0.74936 3.856881,0.0929 4.608987,1.87437 0.752106,1.78165 -0.0906,3.84612 -1.879546,4.59605 z" style="fill: white; stroke-linecap: round; stroke-linejoin: round; stroke: rgb(34, 36, 42); stroke-width: 1px;"/><circle cx="5" cy="5" r="5" transform="translate(11, 10)" style="stroke-linecap: round; stroke-linejoin: round; stroke: none; stroke-width: 2px; fill: white;"/><path d="m 17,22 v -1.71335 c 0.352326,-0.0705 0.703932,-0.17838 1.047628,-0.32133 0.344416,-0.14465 0.665822,-0.32133 0.966377,-0.52145 l 1.19431,1.18005 1.567487,-1.57688 -1.195028,-1.18014 c 0.403376,-0.61394 0.683079,-1.29908 0.825447,-2.01824 l 1.622133,-0.01 v -2.2196 l -1.636514,0.01 c -0.07333,-0.35153 -0.178319,-0.70024 -0.323564,-1.04372 -0.145244,-0.34406 -0.321407,-0.6644 -0.522735,-0.96217 l 1.131035,-1.13631 -1.583305,-1.56293 -1.129598,1.13589 c -0.614052,-0.40108 -1.302883,-0.68093 -2.022633,-0.82247 l 0.0093,-1.61852 h -2.241173 l 0.0042,1.63124 c -0.353763,0.0736 -0.705369,0.17977 -1.049785,0.32371 -0.344415,0.14437 -0.665102,0.32092 -0.9635006,0.52046 l -1.1698628,-1.15823 -1.5667691,1.5792 1.1684265,1.15669 c -0.4026573,0.61283 -0.68308,1.29797 -0.8247287,2.01713 l -1.6588041,0.003 v 2.22174 l 1.6724648,-0.006 c 0.073327,0.35077 0.1797598,0.70243 0.3242851,1.04472 0.1452428,0.34448 0.3214064,0.6644 0.5227339,0.96066 l -1.1993431,1.19723 1.5840256,1.56011 1.1964668,-1.19348 c 0.6140517,0.40346 1.3028827,0.68232 2.0233517,0.82331 l 7.19e-4,1.69892 h 2.226848 z m 0.221462,-3.9957 c -1.788948,0.7502 -3.8576,-0.0928 -4.6097055,-1.87438 -0.7521065,-1.78321 0.090598,-3.84627 1.8802645,-4.59604 1.78823,-0.74936 3.856881,0.0929 4.608987,1.87437 0.752106,1.78165 -0.0906,3.84612 -1.879546,4.59605 z" style="fill: white; stroke-linecap: round; stroke-linejoin: round; stroke: rgb(34, 36, 42); stroke-width: 1px;"/></g><rect class="djs-hit djs-hit-all" x="0" y="0" width="210" height="100" style="fill: none; stroke-opacity: 0; stroke: white; stroke-width: 15px;"/></g></g><g class="djs-group"><g class="djs-element djs-shape" data-element-id="NW_Q_REORDER_T05" transform="matrix(1 0 0 1 2325 105)" style="display: block;"><g class="djs-visual"><circle cx="20" cy="20" r="20" style="stroke-linecap: round; stroke-linejoin: round; stroke: rgb(34, 36, 42); stroke-width: 4px; fill: white; fill-opacity: 0.95;"/></g><rect class="djs-hit djs-hit-all" x="0" y="0" width="40" height="40" style="fill: none; stroke-opacity: 0; stroke: white; stroke-width: 15px;"/></g></g><g class="djs-group"><g class="djs-element djs-shape" data-element-id="NW_Q_REORDER_T05_label" transform="matrix(1 0 0 1 2242 153)" style="display: block;"><g class="djs-visual"><text lineHeight="1.2" class="djs-label" style="font-family: Arial, 'Apple SD Gothic Neo', 'Malgun Gothic', sans-serif; font-size: 14px; font-weight: normal; fill: rgb(34, 36, 42);"><tspan x="0.11993408203125" y="12.600000000000001">발주 전 확인에 남긴 버전·파일 비교와</tspan><tspan x="78.8314208984375" y="29.400000000000002">QS 판단</tspan></text></g><rect class="djs-hit djs-hit-all" x="0" y="0" width="206" height="34" style="fill: none; stroke-opacity: 0; stroke: white; stroke-width: 15px;"/></g></g><g class="djs-group"><g class="djs-element djs-connection" data-element-id="NW_Q_REORDER_TF01" style="display: block;"><g class="djs-visual"><defs><marker id="marker-6nxtxhfc45qrcjfxhh0q1owik" viewBox="0 0 20 20" refX="11" refY="10" markerWidth="10" markerHeight="10" orient="auto"><path d="M 1 5 L 11 10 L 1 15 Z" style="stroke-linecap: round; stroke-linejoin: round; stroke: rgb(34, 36, 42); stroke-width: 1px; fill: rgb(34, 36, 42);"/></marker></defs><path data-corner-radius="5" style="fill: none; stroke-linecap: round; stroke-linejoin: round; stroke: rgb(34, 36, 42); stroke-width: 2px; marker-end: url('#marker-6nxtxhfc45qrcjfxhh0q1owik');" d="M265,125L518,125"/></g><path d="M265,125L518,125" class="djs-hit djs-hit-stroke" style="fill: none; stroke-opacity: 0; stroke: white; stroke-width: 15px;"/></g></g><g class="djs-group"><g class="djs-element djs-connection" data-element-id="NW_Q_REORDER_TF02" style="display: block;"><g class="djs-visual"><defs><marker id="marker-2q537djw58dqnmwf29dniz4m4" viewBox="0 0 20 20" refX="11" refY="10" markerWidth="10" markerHeight="10" orient="auto"><path d="M 1 5 L 11 10 L 1 15 Z" style="stroke-linecap: round; stroke-linejoin: round; stroke: rgb(34, 36, 42); stroke-width: 1px; fill: rgb(34, 36, 42);"/></marker></defs><path data-corner-radius="5" style="fill: none; stroke-linecap: round; stroke-linejoin: round; stroke: rgb(34, 36, 42); stroke-width: 2px; marker-end: url('#marker-2q537djw58dqnmwf29dniz4m4');" d="M565.25,118.25L723,118.25C725.5,118.25,728,120.75,728,123.25L728,120C728,122.5,730.5,125,733,125L740,125"/></g><path d="M565.25,118.25L728,118.25L728,125L740,125" class="djs-hit djs-hit-stroke" style="fill: none; stroke-opacity: 0; stroke: white; stroke-width: 15px;"/></g></g><g class="djs-group"><g class="djs-element djs-shape" data-element-id="NW_Q_REORDER_TF02_label" transform="matrix(1 0 0 1 661 91)" style="display: block;"><g class="djs-visual"><text lineHeight="1.2" class="djs-label" style="font-family: Arial, 'Apple SD Gothic Neo', 'Malgun Gothic', sans-serif; font-size: 14px; font-weight: normal; fill: rgb(34, 36, 42);"><tspan x="0.335205078125" y="12.600000000000001">버전 조회</tspan></text></g><rect class="djs-hit djs-hit-all" x="0" y="0" width="53" height="17" style="fill: none; stroke-opacity: 0; stroke: white; stroke-width: 15px;"/></g></g><g class="djs-group"><g class="djs-element djs-connection" data-element-id="NW_Q_REORDER_TF03" style="display: block;"><g class="djs-visual"><defs><marker id="marker-7fdlzo8svab147vdxzrte6n1t" viewBox="0 0 20 20" refX="11" refY="10" markerWidth="10" markerHeight="10" orient="auto"><path d="M 1 5 L 11 10 L 1 15 Z" style="stroke-linecap: round; stroke-linejoin: round; stroke: rgb(34, 36, 42); stroke-width: 1px; fill: rgb(34, 36, 42);"/></marker><marker id="marker-01e9tnpy943ldob9vqc98juzx" viewBox="0 0 20 20" refX="0" refY="10" markerWidth="10" markerHeight="10" orient="auto"><path d="M 6 4 L 10 16" style="stroke-linecap: round; stroke-linejoin: round; stroke: rgb(34, 36, 42); stroke-width: 2px; fill: none;"/></marker></defs><path data-corner-radius="5" style="fill: none; stroke-linecap: round; stroke-linejoin: round; stroke: rgb(34, 36, 42); stroke-width: 2px; marker-end: url('#marker-7fdlzo8svab147vdxzrte6n1t'); marker-start: url('#marker-01e9tnpy943ldob9vqc98juzx');" d="M565.25,131.75L723,131.75C725.5,131.75,728,134.25,728,136.75L728,280C728,282.5,730.5,285,733,285L740,285"/></g><path d="M565.25,131.75L728,131.75L728,285L740,285" class="djs-hit djs-hit-stroke" style="fill: none; stroke-opacity: 0; stroke: white; stroke-width: 15px;"/></g></g><g class="djs-group"><g class="djs-element djs-shape" data-element-id="NW_Q_REORDER_TF03_label" transform="matrix(1 0 0 1 665 261)" style="display: block;"><g class="djs-visual"><text lineHeight="1.2" class="djs-label" style="font-family: Arial, 'Apple SD Gothic Neo', 'Malgun Gothic', sans-serif; font-size: 14px; font-weight: normal; fill: rgb(34, 36, 42);"><tspan x="0.335205078125" y="12.600000000000001">파일 대조</tspan></text></g><rect class="djs-hit djs-hit-all" x="0" y="0" width="53" height="17" style="fill: none; stroke-opacity: 0; stroke: white; stroke-width: 15px;"/></g></g><g class="djs-group"><g class="djs-element djs-connection" data-element-id="NW_Q_REORDER_TF04" style="display: block;"><g class="djs-visual"><defs><marker id="marker-bqvrw4qrvtlxehmuhl4tgnpbc" viewBox="0 0 20 20" refX="11" refY="10" markerWidth="10" markerHeight="10" orient="auto"><path d="M 1 5 L 11 10 L 1 15 Z" style="stroke-linecap: round; stroke-linejoin: round; stroke: rgb(34, 36, 42); stroke-width: 1px; fill: rgb(34, 36, 42);"/></marker></defs><path data-corner-radius="5" style="fill: none; stroke-linecap: round; stroke-linejoin: round; stroke: rgb(34, 36, 42); stroke-width: 2px; marker-end: url('#marker-bqvrw4qrvtlxehmuhl4tgnpbc');" d="M1250,515L1257,515C1259.5,515,1262,512.5,1262,510L1262,123.25C1262,120.75,1264.5,118.25,1267,118.25L1424.75,118.25"/></g><path d="M1250,515L1262,515L1262,118.25L1424.75,118.25" class="djs-hit djs-hit-stroke" style="fill: none; stroke-opacity: 0; stroke: white; stroke-width: 15px;"/></g></g><g class="djs-group"><g class="djs-element djs-connection" data-element-id="NW_Q_REORDER_TF05" style="display: block;"><g class="djs-visual"><defs><marker id="marker-1d1ilmoe0gcimytnb7qv3nhy2" viewBox="0 0 20 20" refX="11" refY="10" markerWidth="10" markerHeight="10" orient="auto"><path d="M 1 5 L 11 10 L 1 15 Z" style="stroke-linecap: round; stroke-linejoin: round; stroke: rgb(34, 36, 42); stroke-width: 1px; fill: rgb(34, 36, 42);"/></marker></defs><path data-corner-radius="5" style="fill: none; stroke-linecap: round; stroke-linejoin: round; stroke: rgb(34, 36, 42); stroke-width: 2px; marker-end: url('#marker-1d1ilmoe0gcimytnb7qv3nhy2');" d="M2150,515L2157,515C2159.5,515,2162,512.5,2162,510L2162,130C2162,127.5,2164.5,125,2167,125L2325,125"/></g><path d="M2150,515L2162,515L2162,125L2325,125" class="djs-hit djs-hit-stroke" style="fill: none; stroke-opacity: 0; stroke: white; stroke-width: 15px;"/></g></g><g class="djs-group"><g class="djs-element djs-connection" data-element-id="NW_Q_REORDER_TF06" style="display: block;"><g class="djs-visual"><defs><marker id="marker-0vkh6irtwu1278arbtmrd3iq8" viewBox="0 0 20 20" refX="11" refY="10" markerWidth="10" markerHeight="10" orient="auto"><path d="M 1 5 L 11 10 L 1 15 Z" style="stroke-linecap: round; stroke-linejoin: round; stroke: rgb(34, 36, 42); stroke-width: 1px; fill: rgb(34, 36, 42);"/></marker></defs><path data-corner-radius="5" style="fill: none; stroke-linecap: round; stroke-linejoin: round; stroke: rgb(34, 36, 42); stroke-width: 2px; marker-end: url('#marker-0vkh6irtwu1278arbtmrd3iq8');" d="M1250,675L1401,675C1403.5,675,1406,672.5,1406,670L1406,136.75C1406,134.25,1408.5,131.75,1411,131.75L1424.75,131.75"/></g><path d="M1250,675L1406,675L1406,131.75L1424.75,131.75" class="djs-hit djs-hit-stroke" style="fill: none; stroke-opacity: 0; stroke: white; stroke-width: 15px;"/></g></g><g class="djs-group"><g class="djs-element djs-connection" data-element-id="NW_Q_REORDER_T02_SYS_FLOW" style="display: block;"><g class="djs-visual"><defs><marker id="marker-2qtoxr22ybuxey4dkyea3cbpo" viewBox="0 0 20 20" refX="11" refY="10" markerWidth="10" markerHeight="10" orient="auto"><path d="M 1 5 L 11 10 L 1 15 Z" style="stroke-linecap: round; stroke-linejoin: round; stroke: rgb(34, 36, 42); stroke-width: 1px; fill: rgb(34, 36, 42);"/></marker></defs><path data-corner-radius="5" style="fill: none; stroke-linecap: round; stroke-linejoin: round; stroke: rgb(34, 36, 42); stroke-width: 2px; marker-end: url('#marker-2qtoxr22ybuxey4dkyea3cbpo');" d="M950,125L957,125C959.5,125,962,127.5,962,130L962,510C962,512.5,964.5,515,967,515L1040,515"/></g><path d="M950,125L962,125L962,515L1040,515" class="djs-hit djs-hit-stroke" style="fill: none; stroke-opacity: 0; stroke: white; stroke-width: 15px;"/></g></g><g class="djs-group"><g class="djs-element djs-connection" data-element-id="NW_Q_REORDER_T03_SYS_FLOW" style="display: block;"><g class="djs-visual"><defs><marker id="marker-7zlh8xer471r2g4p9glia21oz" viewBox="0 0 20 20" refX="11" refY="10" markerWidth="10" markerHeight="10" orient="auto"><path d="M 1 5 L 11 10 L 1 15 Z" style="stroke-linecap: round; stroke-linejoin: round; stroke: rgb(34, 36, 42); stroke-width: 1px; fill: rgb(34, 36, 42);"/></marker></defs><path data-corner-radius="5" style="fill: none; stroke-linecap: round; stroke-linejoin: round; stroke: rgb(34, 36, 42); stroke-width: 2px; marker-end: url('#marker-7zlh8xer471r2g4p9glia21oz');" d="M950,285L1023,285C1025.5,285,1028,287.5,1028,290L1028,670C1028,672.5,1030.5,675,1033,675L1040,675"/></g><path d="M950,285L1028,285L1028,675L1040,675" class="djs-hit djs-hit-stroke" style="fill: none; stroke-opacity: 0; stroke: white; stroke-width: 15px;"/></g></g><g class="djs-group"><g class="djs-element djs-connection" data-element-id="NW_Q_REORDER_T04_SYS_FLOW" style="display: block;"><g class="djs-visual"><defs><marker id="marker-b4ma3mp0jcjz5bbb4ryt1yb08" viewBox="0 0 20 20" refX="11" refY="10" markerWidth="10" markerHeight="10" orient="auto"><path d="M 1 5 L 11 10 L 1 15 Z" style="stroke-linecap: round; stroke-linejoin: round; stroke: rgb(34, 36, 42); stroke-width: 1px; fill: rgb(34, 36, 42);"/></marker></defs><path data-corner-radius="5" style="fill: none; stroke-linecap: round; stroke-linejoin: round; stroke: rgb(34, 36, 42); stroke-width: 2px; marker-end: url('#marker-b4ma3mp0jcjz5bbb4ryt1yb08');" d="M1850,125L1857,125C1859.5,125,1862,127.5,1862,130L1862,510C1862,512.5,1864.5,515,1867,515L1940,515"/></g><path d="M1850,125L1862,125L1862,515L1940,515" class="djs-hit djs-hit-stroke" style="fill: none; stroke-opacity: 0; stroke: white; stroke-width: 15px;"/></g></g><g class="djs-group"><g class="djs-element djs-connection" data-element-id="NW_Q_REORDER_T_JOIN_NW_Q_REORDER_T04" style="display: block;"><g class="djs-visual"><defs><marker id="marker-3yq9ckkb38jgr3pya16wn8ns2" viewBox="0 0 20 20" refX="11" refY="10" markerWidth="10" markerHeight="10" orient="auto"><path d="M 1 5 L 11 10 L 1 15 Z" style="stroke-linecap: round; stroke-linejoin: round; stroke: rgb(34, 36, 42); stroke-width: 1px; fill: rgb(34, 36, 42);"/></marker></defs><path data-corner-radius="5" style="fill: none; stroke-linecap: round; stroke-linejoin: round; stroke: rgb(34, 36, 42); stroke-width: 2px; marker-end: url('#marker-3yq9ckkb38jgr3pya16wn8ns2');" d="M1472,125L1640,125"/></g><path d="M1472,125L1640,125" class="djs-hit djs-hit-stroke" style="fill: none; stroke-opacity: 0; stroke: white; stroke-width: 15px;"/></g></g></g></g></svg>