<?xml version="1.0" encoding="utf-8"?>
<!-- created with bpmn-js / http://bpmn.io -->
<!DOCTYPE svg PUBLIC "-//W3C//DTD SVG 1.1//EN" "http://www.w3.org/Graphics/SVG/1.1/DTD/svg11.dtd">
<svg xmlns="http://www.w3.org/2000/svg" xmlns:xlink="http://www.w3.org/1999/xlink" width="2530" height="790" viewBox="35 35 2530 790" version="1.1"><g class="djs-group"><g class="djs-element djs-shape" data-element-id="Participant_WF09_T_Process" transform="matrix(1 0 0 1 40 40)" style="display: block;"><g class="djs-visual"><rect x="0" y="0" width="2520" height="780" rx="0" ry="0" style="stroke-linecap: round; stroke-linejoin: round; stroke: rgb(34, 36, 42); stroke-width: 1.5px; fill: white; fill-opacity: 0.95;"/><path style="fill: none; stroke-linecap: round; stroke-linejoin: round; stroke: rgb(34, 36, 42); stroke-width: 1.5px;" d="M30,0L30,780"/><text lineHeight="1.2" class="djs-label" transform="matrix(-1.83697e-16 -1 1 -1.83697e-16 0 780)" style="font-family: Arial, 'Apple SD Gothic Neo', 'Malgun Gothic', sans-serif; font-size: 14px; font-weight: normal; fill: rgb(34, 36, 42);"><tspan x="290.8438720703125" y="19.2">자재표준서 작성·대조 · 도입 후 업무</tspan></text></g><rect class="djs-hit djs-hit-no-move" x="0" y="0" width="2520" height="780" style="fill: none; stroke-opacity: 0; stroke: white; stroke-width: 15px;"/><rect class="djs-hit djs-hit-click-stroke" x="0" y="0" width="2520" height="780" style="fill: none; stroke-opacity: 0; stroke: white; stroke-width: 15px;"/><rect class="djs-hit djs-hit-all" x="0" y="0" width="30" height="780" style="fill: none; stroke-opacity: 0; stroke: white; stroke-width: 15px;"/></g><g class="djs-children"><g class="djs-group"><g class="djs-element djs-shape" data-element-id="Lane_WF09_T_Process_R1" transform="matrix(1 0 0 1 70 590)" style="display: block;"><g class="djs-visual"><rect x="0" y="0" width="2490" height="230" rx="0" ry="0" style="stroke-linecap: round; stroke-linejoin: round; stroke: rgb(34, 36, 42); stroke-width: 1.5px; fill: white; fill-opacity: 0.25;"/><text lineHeight="1.2" class="djs-label" transform="matrix(-1.83697e-16 -1 1 -1.83697e-16 0 230)" style="font-family: Arial, 'Apple SD Gothic Neo', 'Malgun Gothic', sans-serif; font-size: 14px; font-weight: normal; fill: rgb(34, 36, 42);"><tspan x="96.83502197265625" y="19.2">시스템</tspan></text></g><rect class="djs-hit djs-hit-no-move" x="0" y="0" width="2490" height="230" style="fill: none; stroke-opacity: 0; stroke: white; stroke-width: 15px;"/><rect class="djs-hit djs-hit-click-stroke" x="0" y="0" width="2490" height="230" style="fill: none; stroke-opacity: 0; stroke: white; stroke-width: 15px;"/><rect class="djs-hit djs-hit-all" x="0" y="0" width="30" height="230" style="fill: none; stroke-opacity: 0; stroke: white; stroke-width: 15px;"/></g></g><g class="djs-group"><g class="djs-element djs-shape" data-element-id="Lane_WF09_T_Process_R0" transform="matrix(1 0 0 1 70 40)" style="display: block;"><g class="djs-visual"><rect x="0" y="0" width="2490" height="550" rx="0" ry="0" style="stroke-linecap: round; stroke-linejoin: round; stroke: rgb(34, 36, 42); stroke-width: 1.5px; fill: white; fill-opacity: 0.25;"/><text lineHeight="1.2" class="djs-label" transform="matrix(-1.83697e-16 -1 1 -1.83697e-16 0 550)" style="font-family: Arial, 'Apple SD Gothic Neo', 'Malgun Gothic', sans-serif; font-size: 14px; font-weight: normal; fill: rgb(34, 36, 42);"><tspan x="258.83123779296875" y="19.2">QS팀</tspan></text></g><rect class="djs-hit djs-hit-no-move" x="0" y="0" width="2490" height="550" style="fill: none; stroke-opacity: 0; stroke: white; stroke-width: 15px;"/><rect class="djs-hit djs-hit-click-stroke" x="0" y="0" width="2490" height="550" style="fill: none; stroke-opacity: 0; stroke: white; stroke-width: 15px;"/><rect class="djs-hit djs-hit-all" x="0" y="0" width="30" height="550" style="fill: none; stroke-opacity: 0; stroke: white; stroke-width: 15px;"/></g></g><g class="djs-group"><g class="djs-element djs-shape" data-element-id="WF09_T_START1" transform="matrix(1 0 0 1 225 105)" style="display: block;"><g class="djs-visual"><circle cx="20" cy="20" r="20" style="stroke-linecap: round; stroke-linejoin: round; stroke: rgb(34, 36, 42); stroke-width: 2px; fill: white; fill-opacity: 0.95;"/></g><rect class="djs-hit djs-hit-all" x="0" y="0" width="40" height="40" style="fill: none; stroke-opacity: 0; stroke: white; stroke-width: 15px;"/></g></g><g class="djs-group"><g class="djs-element djs-shape" data-element-id="WF09_T_START1_label" transform="matrix(1 0 0 1 233 153)" style="display: block;"><g class="djs-visual"><text lineHeight="1.2" class="djs-label" style="font-family: Arial, 'Apple SD Gothic Neo', 'Malgun Gothic', sans-serif; font-size: 14px; font-weight: normal; fill: rgb(34, 36, 42);"><tspan x="0.3900146484375" y="12.600000000000001">시작</tspan></text></g><rect class="djs-hit djs-hit-all" x="0" y="0" width="25" height="17" style="fill: none; stroke-opacity: 0; stroke: white; stroke-width: 15px;"/></g></g><g class="djs-group"><g class="djs-element djs-shape" data-element-id="WF09_T01" transform="matrix(1 0 0 1 440 75)" style="display: block;"><g class="djs-visual"><rect x="0" y="0" width="210" height="100" rx="10" ry="10" style="stroke-linecap: round; stroke-linejoin: round; stroke: rgb(34, 36, 42); stroke-width: 2px; fill: white; fill-opacity: 0.95;"/><text lineHeight="1.2" class="djs-label" style="font-family: Arial, 'Apple SD Gothic Neo', 'Malgun Gothic', sans-serif; font-size: 14px; font-weight: normal; fill: rgb(34, 36, 42);"><tspan x="28.33270263671875" y="45.800000000000004">완료된 개정과 LIMS 표준서 </tspan><tspan x="60.67022705078125" y="62.60000000000001">파일을 연결한다</tspan></text><path d="m 15,12 c 0.909,-0.845 1.594,-2.049 1.594,-3.385 0,-2.554 -1.805,-4.62199999 -4.357,-4.62199999 -2.55199998,0 -4.28799998,2.06799999 -4.28799998,4.62199999 0,1.348 0.974,2.562 1.89599998,3.405 -0.52899998,0.187 -5.669,2.097 -5.794,4.7560005 v 6.718 h 17 v -6.718 c 0,-2.2980005 -5.5279996,-4.5950005 -6.0509996,-4.7760005 zm -8,6 l 0,5.5 m 11,0 l 0,-5" style="fill: white; stroke-linecap: round; stroke-linejoin: round; stroke: rgb(34, 36, 42); stroke-width: 0.5px;"/><path d="m 15,12 m 2.162,1.009 c 0,2.4470005 -2.158,4.4310005 -4.821,4.4310005 -2.66499998,0 -4.822,-1.981 -4.822,-4.4310005 " style="fill: white; stroke-linecap: round; stroke-linejoin: round; stroke: rgb(34, 36, 42); stroke-width: 0.5px;"/><path d="m 15,12 m -6.9,-3.80 c 0,0 2.25099998,-2.358 4.27399998,-1.177 2.024,1.181 4.221,1.537 4.124,0.965 -0.098,-0.57 -0.117,-3.79099999 -4.191,-4.13599999 -3.57499998,0.001 -4.20799998,3.36699999 -4.20699998,4.34799999 z" style="fill: rgb(34, 36, 42); stroke-linecap: round; stroke-linejoin: round; stroke: rgb(34, 36, 42); stroke-width: 0.5px;"/></g><rect class="djs-hit djs-hit-all" x="0" y="0" width="210" height="100" style="fill: none; stroke-opacity: 0; stroke: white; stroke-width: 15px;"/></g></g><g class="djs-group"><g class="djs-element djs-shape" data-element-id="J_WF09_T02" transform="matrix(1 0 0 1 818 98)" style="display: block;"><g class="djs-visual"><polygon points="27,0 54,27 27,54 0,27" style="stroke-linecap: round; stroke-linejoin: round; stroke: rgb(34, 36, 42); stroke-width: 2px; fill: white; fill-opacity: 0.95;"/><path d="m 17.28,16.2 8.022857142857143,10.491428571428573 -8.022857142857143,10.491428571428573 3.7028571428571433,0 6.171428571428573,-8.061366857142858 6.171428571428573,8.061366857142858 3.7028571428571433,0 -8.022857142857143,-10.491428571428573 8.022857142857143,-10.491428571428573 -3.7028571428571433,0 -6.171428571428573,8.061366857142858 -6.171428571428573,-8.061366857142858 -3.7028571428571433,0 z" style="fill: rgb(34, 36, 42); stroke-linecap: round; stroke-linejoin: round; stroke: rgb(34, 36, 42); stroke-width: 1px;"/></g><rect class="djs-hit djs-hit-all" x="0" y="0" width="54" height="54" style="fill: none; stroke-opacity: 0; stroke: white; stroke-width: 15px;"/></g></g><g class="djs-group"><g class="djs-element djs-shape" data-element-id="J_WF09_T02_label" transform="matrix(1 0 0 1 819 57)" style="display: block;"><g class="djs-visual"><text lineHeight="1.2" class="djs-label" style="font-family: Arial, 'Apple SD Gothic Neo', 'Malgun Gothic', sans-serif; font-size: 14px; font-weight: normal; fill: rgb(34, 36, 42);"><tspan x="0.335205078125" y="12.600000000000001">경로 합류</tspan></text></g><rect class="djs-hit djs-hit-all" x="0" y="0" width="53" height="17" style="fill: none; stroke-opacity: 0; stroke: white; stroke-width: 15px;"/></g></g><g class="djs-group"><g class="djs-element djs-shape" data-element-id="WF09_T02" transform="matrix(1 0 0 1 1040 75)" style="display: block;"><g class="djs-visual"><rect x="0" y="0" width="210" height="100" rx="10" ry="10" style="stroke-linecap: round; stroke-linejoin: round; stroke: rgb(34, 36, 42); stroke-width: 2px; fill: white; fill-opacity: 0.95;"/><text lineHeight="1.2" class="djs-label" style="font-family: Arial, 'Apple SD Gothic Neo', 'Malgun Gothic', sans-serif; font-size: 14px; font-weight: normal; fill: rgb(34, 36, 42);"><tspan x="7.95440673828125" y="54.2">표준서·시방서의 판독값을 확인한다</tspan></text><path d="m 15,12 c 0.909,-0.845 1.594,-2.049 1.594,-3.385 0,-2.554 -1.805,-4.62199999 -4.357,-4.62199999 -2.55199998,0 -4.28799998,2.06799999 -4.28799998,4.62199999 0,1.348 0.974,2.562 1.89599998,3.405 -0.52899998,0.187 -5.669,2.097 -5.794,4.7560005 v 6.718 h 17 v -6.718 c 0,-2.2980005 -5.5279996,-4.5950005 -6.0509996,-4.7760005 zm -8,6 l 0,5.5 m 11,0 l 0,-5" style="fill: white; stroke-linecap: round; stroke-linejoin: round; stroke: rgb(34, 36, 42); stroke-width: 0.5px;"/><path d="m 15,12 m 2.162,1.009 c 0,2.4470005 -2.158,4.4310005 -4.821,4.4310005 -2.66499998,0 -4.822,-1.981 -4.822,-4.4310005 " style="fill: white; stroke-linecap: round; stroke-linejoin: round; stroke: rgb(34, 36, 42); stroke-width: 0.5px;"/><path d="m 15,12 m -6.9,-3.80 c 0,0 2.25099998,-2.358 4.27399998,-1.177 2.024,1.181 4.221,1.537 4.124,0.965 -0.098,-0.57 -0.117,-3.79099999 -4.191,-4.13599999 -3.57499998,0.001 -4.20799998,3.36699999 -4.20699998,4.34799999 z" style="fill: rgb(34, 36, 42); stroke-linecap: round; stroke-linejoin: round; stroke: rgb(34, 36, 42); stroke-width: 0.5px;"/></g><rect class="djs-hit djs-hit-all" x="0" y="0" width="210" height="100" style="fill: none; stroke-opacity: 0; stroke: white; stroke-width: 15px;"/></g></g><g class="djs-group"><g class="djs-element djs-shape" data-element-id="WF09_T03" transform="matrix(1 0 0 1 1340 625)" style="display: block;"><g class="djs-visual"><rect x="0" y="0" width="210" height="100" rx="10" ry="10" style="stroke-linecap: round; stroke-linejoin: round; stroke: rgb(34, 36, 42); stroke-width: 2px; fill: white; fill-opacity: 0.95;"/><text lineHeight="1.2" class="djs-label" style="font-family: Arial, 'Apple SD Gothic Neo', 'Malgun Gothic', sans-serif; font-size: 14px; font-weight: normal; fill: rgb(34, 36, 42);"><tspan x="28.450439453125" y="54.2">표준서와 승인본을 대조한다</tspan></text><path d="m 15,12 c 0.909,-0.845 1.594,-2.049 1.594,-3.385 0,-2.554 -1.805,-4.62199999 -4.357,-4.62199999 -2.55199998,0 -4.28799998,2.06799999 -4.28799998,4.62199999 0,1.348 0.974,2.562 1.89599998,3.405 -0.52899998,0.187 -5.669,2.097 -5.794,4.7560005 v 6.718 h 17 v -6.718 c 0,-2.2980005 -5.5279996,-4.5950005 -6.0509996,-4.7760005 zm -8,6 l 0,5.5 m 11,0 l 0,-5" style="fill: white; stroke-linecap: round; stroke-linejoin: round; stroke: rgb(34, 36, 42); stroke-width: 0.5px;"/><path d="m 15,12 m 2.162,1.009 c 0,2.4470005 -2.158,4.4310005 -4.821,4.4310005 -2.66499998,0 -4.822,-1.981 -4.822,-4.4310005 " style="fill: white; stroke-linecap: round; stroke-linejoin: round; stroke: rgb(34, 36, 42); stroke-width: 0.5px;"/><path d="m 15,12 m -6.9,-3.80 c 0,0 2.25099998,-2.358 4.27399998,-1.177 2.024,1.181 4.221,1.537 4.124,0.965 -0.098,-0.57 -0.117,-3.79099999 -4.191,-4.13599999 -3.57499998,0.001 -4.20799998,3.36699999 -4.20699998,4.34799999 z" style="fill: rgb(34, 36, 42); stroke-linecap: round; stroke-linejoin: round; stroke: rgb(34, 36, 42); stroke-width: 0.5px;"/></g><rect class="djs-hit djs-hit-all" x="0" y="0" width="210" height="100" style="fill: none; stroke-opacity: 0; stroke: white; stroke-width: 15px;"/></g></g><g class="djs-group"><g class="djs-element djs-shape" data-element-id="WF09_T04" transform="matrix(1 0 0 1 1718 98)" style="display: block;"><g class="djs-visual"><polygon points="27,0 54,27 27,54 0,27" style="stroke-linecap: round; stroke-linejoin: round; stroke: rgb(34, 36, 42); stroke-width: 2px; fill: white; fill-opacity: 0.95;"/><path d="m 17.28,16.2 8.022857142857143,10.491428571428573 -8.022857142857143,10.491428571428573 3.7028571428571433,0 6.171428571428573,-8.061366857142858 6.171428571428573,8.061366857142858 3.7028571428571433,0 -8.022857142857143,-10.491428571428573 8.022857142857143,-10.491428571428573 -3.7028571428571433,0 -6.171428571428573,8.061366857142858 -6.171428571428573,-8.061366857142858 -3.7028571428571433,0 z" style="fill: rgb(34, 36, 42); stroke-linecap: round; stroke-linejoin: round; stroke: rgb(34, 36, 42); stroke-width: 1px;"/></g><rect class="djs-hit djs-hit-all" x="0" y="0" width="54" height="54" style="fill: none; stroke-opacity: 0; stroke: white; stroke-width: 15px;"/></g></g><g class="djs-group"><g class="djs-element djs-shape" data-element-id="WF09_T04_label" transform="matrix(1 0 0 1 1637 160)" style="display: block;"><g class="djs-visual"><text lineHeight="1.2" class="djs-label" style="font-family: Arial, 'Apple SD Gothic Neo', 'Malgun Gothic', sans-serif; font-size: 14px; font-weight: normal; fill: rgb(34, 36, 42);"><tspan x="0.443603515625" y="12.600000000000001">고칠 대상이 표준서인가, Artwork인가?</tspan></text></g><rect class="djs-hit djs-hit-all" x="0" y="0" width="217" height="17" style="fill: none; stroke-opacity: 0; stroke: white; stroke-width: 15px;"/></g></g><g class="djs-group"><g class="djs-element djs-shape" data-element-id="WF09_T05" transform="matrix(1 0 0 1 1940 75)" style="display: block;"><g class="djs-visual"><rect x="0" y="0" width="210" height="100" rx="10" ry="10" style="stroke-linecap: round; stroke-linejoin: round; stroke: rgb(34, 36, 42); stroke-width: 2px; fill: white; fill-opacity: 0.95;"/><text lineHeight="1.2" class="djs-label" style="font-family: Arial, 'Apple SD Gothic Neo', 'Malgun Gothic', sans-serif; font-size: 14px; font-weight: normal; fill: rgb(34, 36, 42);"><tspan x="32.56060791015625" y="45.800000000000004">표준서 파일을 보완해 다시 </tspan><tspan x="80.780029296875" y="62.60000000000001">연결한다</tspan></text><path d="m 15,12 c 0.909,-0.845 1.594,-2.049 1.594,-3.385 0,-2.554 -1.805,-4.62199999 -4.357,-4.62199999 -2.55199998,0 -4.28799998,2.06799999 -4.28799998,4.62199999 0,1.348 0.974,2.562 1.89599998,3.405 -0.52899998,0.187 -5.669,2.097 -5.794,4.7560005 v 6.718 h 17 v -6.718 c 0,-2.2980005 -5.5279996,-4.5950005 -6.0509996,-4.7760005 zm -8,6 l 0,5.5 m 11,0 l 0,-5" style="fill: white; stroke-linecap: round; stroke-linejoin: round; stroke: rgb(34, 36, 42); stroke-width: 0.5px;"/><path d="m 15,12 m 2.162,1.009 c 0,2.4470005 -2.158,4.4310005 -4.821,4.4310005 -2.66499998,0 -4.822,-1.981 -4.822,-4.4310005 " style="fill: white; stroke-linecap: round; stroke-linejoin: round; stroke: rgb(34, 36, 42); stroke-width: 0.5px;"/><path d="m 15,12 m -6.9,-3.80 c 0,0 2.25099998,-2.358 4.27399998,-1.177 2.024,1.181 4.221,1.537 4.124,0.965 -0.098,-0.57 -0.117,-3.79099999 -4.191,-4.13599999 -3.57499998,0.001 -4.20799998,3.36699999 -4.20699998,4.34799999 z" style="fill: rgb(34, 36, 42); stroke-linecap: round; stroke-linejoin: round; stroke: rgb(34, 36, 42); stroke-width: 0.5px;"/></g><rect class="djs-hit djs-hit-all" x="0" y="0" width="210" height="100" style="fill: none; stroke-opacity: 0; stroke: white; stroke-width: 15px;"/></g></g><g class="djs-group"><g class="djs-element djs-shape" data-element-id="WF09_T06" transform="matrix(1 0 0 1 1940 235)" style="display: block;"><g class="djs-visual"><rect x="0" y="0" width="210" height="100" rx="10" ry="10" style="stroke-linecap: round; stroke-linejoin: round; stroke: rgb(34, 36, 42); stroke-width: 2px; fill: white; fill-opacity: 0.95;"/><text lineHeight="1.2" class="djs-label" style="font-family: Arial, 'Apple SD Gothic Neo', 'Malgun Gothic', sans-serif; font-size: 14px; font-weight: normal; fill: rgb(34, 36, 42);"><tspan x="27.00146484375" y="45.800000000000004">Artwork 변경은 새 개정으로 </tspan><tspan x="80.780029296875" y="62.60000000000001">연결한다</tspan></text><path d="m 15,12 c 0.909,-0.845 1.594,-2.049 1.594,-3.385 0,-2.554 -1.805,-4.62199999 -4.357,-4.62199999 -2.55199998,0 -4.28799998,2.06799999 -4.28799998,4.62199999 0,1.348 0.974,2.562 1.89599998,3.405 -0.52899998,0.187 -5.669,2.097 -5.794,4.7560005 v 6.718 h 17 v -6.718 c 0,-2.2980005 -5.5279996,-4.5950005 -6.0509996,-4.7760005 zm -8,6 l 0,5.5 m 11,0 l 0,-5" style="fill: white; stroke-linecap: round; stroke-linejoin: round; stroke: rgb(34, 36, 42); stroke-width: 0.5px;"/><path d="m 15,12 m 2.162,1.009 c 0,2.4470005 -2.158,4.4310005 -4.821,4.4310005 -2.66499998,0 -4.822,-1.981 -4.822,-4.4310005 " style="fill: white; stroke-linecap: round; stroke-linejoin: round; stroke: rgb(34, 36, 42); stroke-width: 0.5px;"/><path d="m 15,12 m -6.9,-3.80 c 0,0 2.25099998,-2.358 4.27399998,-1.177 2.024,1.181 4.221,1.537 4.124,0.965 -0.098,-0.57 -0.117,-3.79099999 -4.191,-4.13599999 -3.57499998,0.001 -4.20799998,3.36699999 -4.20699998,4.34799999 z" style="fill: rgb(34, 36, 42); stroke-linecap: round; stroke-linejoin: round; stroke: rgb(34, 36, 42); stroke-width: 0.5px;"/></g><rect class="djs-hit djs-hit-all" x="0" y="0" width="210" height="100" style="fill: none; stroke-opacity: 0; stroke: white; stroke-width: 15px;"/></g></g><g class="djs-group"><g class="djs-element djs-shape" data-element-id="WF09_T07" transform="matrix(1 0 0 1 1940 395)" style="display: block;"><g class="djs-visual"><rect x="0" y="0" width="210" height="100" rx="10" ry="10" style="stroke-linecap: round; stroke-linejoin: round; stroke: rgb(34, 36, 42); stroke-width: 2px; fill: white; fill-opacity: 0.95;"/><text lineHeight="1.2" class="djs-label" style="font-family: Arial, 'Apple SD Gothic Neo', 'Malgun Gothic', sans-serif; font-size: 14px; font-weight: normal; fill: rgb(34, 36, 42);"><tspan x="12.4508056640625" y="54.2">비교 결과와 사용 표준서를 남긴다</tspan></text><path d="m 15,12 c 0.909,-0.845 1.594,-2.049 1.594,-3.385 0,-2.554 -1.805,-4.62199999 -4.357,-4.62199999 -2.55199998,0 -4.28799998,2.06799999 -4.28799998,4.62199999 0,1.348 0.974,2.562 1.89599998,3.405 -0.52899998,0.187 -5.669,2.097 -5.794,4.7560005 v 6.718 h 17 v -6.718 c 0,-2.2980005 -5.5279996,-4.5950005 -6.0509996,-4.7760005 zm -8,6 l 0,5.5 m 11,0 l 0,-5" style="fill: white; stroke-linecap: round; stroke-linejoin: round; stroke: rgb(34, 36, 42); stroke-width: 0.5px;"/><path d="m 15,12 m 2.162,1.009 c 0,2.4470005 -2.158,4.4310005 -4.821,4.4310005 -2.66499998,0 -4.822,-1.981 -4.822,-4.4310005 " style="fill: white; stroke-linecap: round; stroke-linejoin: round; stroke: rgb(34, 36, 42); stroke-width: 0.5px;"/><path d="m 15,12 m -6.9,-3.80 c 0,0 2.25099998,-2.358 4.27399998,-1.177 2.024,1.181 4.221,1.537 4.124,0.965 -0.098,-0.57 -0.117,-3.79099999 -4.191,-4.13599999 -3.57499998,0.001 -4.20799998,3.36699999 -4.20699998,4.34799999 z" style="fill: rgb(34, 36, 42); stroke-linecap: round; stroke-linejoin: round; stroke: rgb(34, 36, 42); stroke-width: 0.5px;"/></g><rect class="djs-hit djs-hit-all" x="0" y="0" width="210" height="100" style="fill: none; stroke-opacity: 0; stroke: white; stroke-width: 15px;"/></g></g><g class="djs-group"><g class="djs-element djs-shape" data-element-id="WF09_T06_RESULT" transform="matrix(1 0 0 1 2325 105)" style="display: block;"><g class="djs-visual"><circle cx="20" cy="20" r="20" style="stroke-linecap: round; stroke-linejoin: round; stroke: rgb(34, 36, 42); stroke-width: 4px; fill: white; fill-opacity: 0.95;"/></g><rect class="djs-hit djs-hit-all" x="0" y="0" width="40" height="40" style="fill: none; stroke-opacity: 0; stroke: white; stroke-width: 15px;"/></g></g><g class="djs-group"><g class="djs-element djs-shape" data-element-id="WF09_T06_RESULT_label" transform="matrix(1 0 0 1 2297 153)" style="display: block;"><g class="djs-visual"><text lineHeight="1.2" class="djs-label" style="font-family: Arial, 'Apple SD Gothic Neo', 'Malgun Gothic', sans-serif; font-size: 14px; font-weight: normal; fill: rgb(34, 36, 42);"><tspan x="0.28057861328125" y="12.600000000000001">새 개정 검토 대상</tspan></text></g><rect class="djs-hit djs-hit-all" x="0" y="0" width="97" height="17" style="fill: none; stroke-opacity: 0; stroke: white; stroke-width: 15px;"/></g></g><g class="djs-group"><g class="djs-element djs-shape" data-element-id="WF09_T07_RESULT" transform="matrix(1 0 0 1 2325 265)" style="display: block;"><g class="djs-visual"><circle cx="20" cy="20" r="20" style="stroke-linecap: round; stroke-linejoin: round; stroke: rgb(34, 36, 42); stroke-width: 4px; fill: white; fill-opacity: 0.95;"/></g><rect class="djs-hit djs-hit-all" x="0" y="0" width="40" height="40" style="fill: none; stroke-opacity: 0; stroke: white; stroke-width: 15px;"/></g></g><g class="djs-group"><g class="djs-element djs-shape" data-element-id="WF09_T07_RESULT_label" transform="matrix(1 0 0 1 2299 313)" style="display: block;"><g class="djs-visual"><text lineHeight="1.2" class="djs-label" style="font-family: Arial, 'Apple SD Gothic Neo', 'Malgun Gothic', sans-serif; font-size: 14px; font-weight: normal; fill: rgb(34, 36, 42);"><tspan x="0.22540283203125" y="12.600000000000001">표준서 대조 기록</tspan></text></g><rect class="djs-hit djs-hit-all" x="0" y="0" width="93" height="17" style="fill: none; stroke-opacity: 0; stroke: white; stroke-width: 15px;"/></g></g><g class="djs-group"><g class="djs-element djs-connection" data-element-id="WF09_TF01" style="display: block;"><g class="djs-visual"><defs><marker id="marker-1jz4p8vpyjdjmjfs52ccpw6p7" viewBox="0 0 20 20" refX="11" refY="10" markerWidth="10" markerHeight="10" orient="auto"><path d="M 1 5 L 11 10 L 1 15 Z" style="stroke-linecap: round; stroke-linejoin: round; stroke: rgb(34, 36, 42); stroke-width: 1px; fill: rgb(34, 36, 42);"/></marker></defs><path data-corner-radius="5" style="fill: none; stroke-linecap: round; stroke-linejoin: round; stroke: rgb(34, 36, 42); stroke-width: 2px; marker-end: url('#marker-1jz4p8vpyjdjmjfs52ccpw6p7');" d="M650,125L801,125C803.5,125,806,122.5,806,120L806,123.25C806,120.75,808.5,118.25,811,118.25L824.75,118.25"/></g><path d="M650,125L806,125L806,118.25L824.75,118.25" class="djs-hit djs-hit-stroke" style="fill: none; stroke-opacity: 0; stroke: white; stroke-width: 15px;"/></g></g><g class="djs-group"><g class="djs-element djs-connection" data-element-id="WF09_TF02" style="display: block;"><g class="djs-visual"><defs><marker id="marker-ai3zpqte8b6gfe7gt2fw70pie" viewBox="0 0 20 20" refX="11" refY="10" markerWidth="10" markerHeight="10" orient="auto"><path d="M 1 5 L 11 10 L 1 15 Z" style="stroke-linecap: round; stroke-linejoin: round; stroke: rgb(34, 36, 42); stroke-width: 1px; fill: rgb(34, 36, 42);"/></marker></defs><path data-corner-radius="5" style="fill: none; stroke-linecap: round; stroke-linejoin: round; stroke: rgb(34, 36, 42); stroke-width: 2px; marker-end: url('#marker-ai3zpqte8b6gfe7gt2fw70pie');" d="M1250,125L1257,125C1259.5,125,1262,127.5,1262,130L1262,670C1262,672.5,1264.5,675,1267,675L1340,675"/></g><path d="M1250,125L1262,125L1262,675L1340,675" class="djs-hit djs-hit-stroke" style="fill: none; stroke-opacity: 0; stroke: white; stroke-width: 15px;"/></g></g><g class="djs-group"><g class="djs-element djs-connection" data-element-id="WF09_TF03" style="display: block;"><g class="djs-visual"><defs><marker id="marker-a4t377z705fcihwle5nl7bemb" viewBox="0 0 20 20" refX="11" refY="10" markerWidth="10" markerHeight="10" orient="auto"><path d="M 1 5 L 11 10 L 1 15 Z" style="stroke-linecap: round; stroke-linejoin: round; stroke: rgb(34, 36, 42); stroke-width: 1px; fill: rgb(34, 36, 42);"/></marker></defs><path data-corner-radius="5" style="fill: none; stroke-linecap: round; stroke-linejoin: round; stroke: rgb(34, 36, 42); stroke-width: 2px; marker-end: url('#marker-a4t377z705fcihwle5nl7bemb');" d="M1550,675L1557,675C1559.5,675,1562,672.5,1562,670L1562,130C1562,127.5,1564.5,125,1567,125L1718,125"/></g><path d="M1550,675L1562,675L1562,125L1718,125" class="djs-hit djs-hit-stroke" style="fill: none; stroke-opacity: 0; stroke: white; stroke-width: 15px;"/></g></g><g class="djs-group"><g class="djs-element djs-connection" data-element-id="WF09_TF04" style="display: block;"><g class="djs-visual"><defs><marker id="marker-4vgvxvyhog5hqeoodih9917fg" viewBox="0 0 20 20" refX="11" refY="10" markerWidth="10" markerHeight="10" orient="auto"><path d="M 1 5 L 11 10 L 1 15 Z" style="stroke-linecap: round; stroke-linejoin: round; stroke: rgb(34, 36, 42); stroke-width: 1px; fill: rgb(34, 36, 42);"/></marker></defs><path data-corner-radius="5" style="fill: none; stroke-linecap: round; stroke-linejoin: round; stroke: rgb(34, 36, 42); stroke-width: 2px; marker-end: url('#marker-4vgvxvyhog5hqeoodih9917fg');" d="M1761.2,114.2L1923,114.2C1925.5,114.2,1928,116.7,1928,119.2L1928,120C1928,122.5,1930.5,125,1933,125L1940,125"/></g><path d="M1761.2,114.2L1928,114.2L1928,125L1940,125" class="djs-hit djs-hit-stroke" style="fill: none; stroke-opacity: 0; stroke: white; stroke-width: 15px;"/></g></g><g class="djs-group"><g class="djs-element djs-shape" data-element-id="WF09_TF04_label" transform="matrix(1 0 0 1 1854 138)" style="display: block;"><g class="djs-visual"><text lineHeight="1.2" class="djs-label" style="font-family: Arial, 'Apple SD Gothic Neo', 'Malgun Gothic', sans-serif; font-size: 14px; font-weight: normal; fill: rgb(34, 36, 42);"><tspan x="0.28021240234375" y="12.600000000000001">표준서 수정</tspan></text></g><rect class="djs-hit djs-hit-all" x="0" y="0" width="65" height="17" style="fill: none; stroke-opacity: 0; stroke: white; stroke-width: 15px;"/></g></g><g class="djs-group"><g class="djs-element djs-connection" data-element-id="WF09_TF05" style="display: block;"><g class="djs-visual"><defs><marker id="marker-59j56kqnvdcq57ksjb8u2biu4" viewBox="0 0 20 20" refX="11" refY="10" markerWidth="10" markerHeight="10" orient="auto"><path d="M 1 5 L 11 10 L 1 15 Z" style="stroke-linecap: round; stroke-linejoin: round; stroke: rgb(173, 90, 19); stroke-width: 1px; fill: rgb(173, 90, 19);"/></marker></defs><path data-corner-radius="5" style="fill: none; stroke-linecap: round; stroke-linejoin: round; stroke: rgb(173, 90, 19); stroke-width: 2px; marker-end: url('#marker-59j56kqnvdcq57ksjb8u2biu4');" d="M2150,125L2157,125C2159.5,125,2162,122.5,2162,120L2162,58C2162,55.5,2159.5,53,2157,53L765,53C762.5,53,760,55.5,760,58L760,126.75C760,129.25,762.5,131.75,765,131.75L824.75,131.75"/></g><path d="M2150,125L2162,125L2162,53L760,53L760,131.75L824.75,131.75" class="djs-hit djs-hit-stroke" style="fill: none; stroke-opacity: 0; stroke: white; stroke-width: 15px;"/></g></g><g class="djs-group"><g class="djs-element djs-shape" data-element-id="WF09_TF05_label" transform="matrix(1 0 0 1 2193 75)" style="display: block;"><g class="djs-visual"><text lineHeight="1.2" class="djs-label" style="font-family: Arial, 'Apple SD Gothic Neo', 'Malgun Gothic', sans-serif; font-size: 14px; font-weight: normal; fill: rgb(173, 90, 19);"><tspan x="0.33538818359375" y="12.600000000000001">새 파일 대조</tspan></text></g><rect class="djs-hit djs-hit-all" x="0" y="0" width="69" height="17" style="fill: none; stroke-opacity: 0; stroke: white; stroke-width: 15px;"/></g></g><g class="djs-group"><g class="djs-element djs-connection" data-element-id="WF09_TF06" style="display: block;"><g class="djs-visual"><defs><marker id="marker-a7hrs858mag81o3gqso613xb2" viewBox="0 0 20 20" refX="11" refY="10" markerWidth="10" markerHeight="10" orient="auto"><path d="M 1 5 L 11 10 L 1 15 Z" style="stroke-linecap: round; stroke-linejoin: round; stroke: rgb(34, 36, 42); stroke-width: 1px; fill: rgb(34, 36, 42);"/></marker></defs><path data-corner-radius="5" style="fill: none; stroke-linecap: round; stroke-linejoin: round; stroke: rgb(34, 36, 42); stroke-width: 2px; marker-end: url('#marker-a7hrs858mag81o3gqso613xb2');" d="M1772,125L1923,125C1925.5,125,1928,127.5,1928,130L1928,280C1928,282.5,1930.5,285,1933,285L1940,285"/></g><path d="M1772,125L1928,125L1928,285L1940,285" class="djs-hit djs-hit-stroke" style="fill: none; stroke-opacity: 0; stroke: white; stroke-width: 15px;"/></g></g><g class="djs-group"><g class="djs-element djs-shape" data-element-id="WF09_TF06_label" transform="matrix(1 0 0 1 1842 261)" style="display: block;"><g class="djs-visual"><text lineHeight="1.2" class="djs-label" style="font-family: Arial, 'Apple SD Gothic Neo', 'Malgun Gothic', sans-serif; font-size: 14px; font-weight: normal; fill: rgb(34, 36, 42);"><tspan x="0.2210693359375" y="12.600000000000001">Artwork 변경</tspan></text></g><rect class="djs-hit djs-hit-all" x="0" y="0" width="76" height="17" style="fill: none; stroke-opacity: 0; stroke: white; stroke-width: 15px;"/></g></g><g class="djs-group"><g class="djs-element djs-connection" data-element-id="WF09_TF07" style="display: block;"><g class="djs-visual"><defs><marker id="marker-avdujc0hjw4r87aetnx7k1ab6" viewBox="0 0 20 20" refX="11" refY="10" markerWidth="10" markerHeight="10" orient="auto"><path d="M 1 5 L 11 10 L 1 15 Z" style="stroke-linecap: round; stroke-linejoin: round; stroke: rgb(34, 36, 42); stroke-width: 1px; fill: rgb(34, 36, 42);"/></marker><marker id="marker-6bun2cpnnqb0o5lvnbermbxep" viewBox="0 0 20 20" refX="0" refY="10" markerWidth="10" markerHeight="10" orient="auto"><path d="M 6 4 L 10 16" style="stroke-linecap: round; stroke-linejoin: round; stroke: rgb(34, 36, 42); stroke-width: 2px; fill: none;"/></marker></defs><path data-corner-radius="5" style="fill: none; stroke-linecap: round; stroke-linejoin: round; stroke: rgb(34, 36, 42); stroke-width: 2px; marker-end: url('#marker-avdujc0hjw4r87aetnx7k1ab6'); marker-start: url('#marker-6bun2cpnnqb0o5lvnbermbxep');" d="M1761.2,135.8L1913,135.8C1915.5,135.8,1918,138.3,1918,140.8L1918,440C1918,442.5,1920.5,445,1923,445L1940,445"/></g><path d="M1761.2,135.8L1918,135.8L1918,445L1940,445" class="djs-hit djs-hit-stroke" style="fill: none; stroke-opacity: 0; stroke: white; stroke-width: 15px;"/></g></g><g class="djs-group"><g class="djs-element djs-shape" data-element-id="WF09_TF07_label" transform="matrix(1 0 0 1 1928 359)" style="display: block;"><g class="djs-visual"><text lineHeight="1.2" class="djs-label" style="font-family: Arial, 'Apple SD Gothic Neo', 'Malgun Gothic', sans-serif; font-size: 14px; font-weight: normal; fill: rgb(34, 36, 42);"><tspan x="0.33935546875" y="12.600000000000001">차이 없음·확인 마침</tspan></text></g><rect class="djs-hit djs-hit-all" x="0" y="0" width="110" height="17" style="fill: none; stroke-opacity: 0; stroke: white; stroke-width: 15px;"/></g></g><g class="djs-group"><g class="djs-element djs-connection" data-element-id="WF09_T06_END_FLOW" style="display: block;"><g class="djs-visual"><defs><marker id="marker-87ffk4xremmme1irjvrsoa3li" viewBox="0 0 20 20" refX="11" refY="10" markerWidth="10" markerHeight="10" orient="auto"><path d="M 1 5 L 11 10 L 1 15 Z" style="stroke-linecap: round; stroke-linejoin: round; stroke: rgb(34, 36, 42); stroke-width: 1px; fill: rgb(34, 36, 42);"/></marker></defs><path data-corner-radius="5" style="fill: none; stroke-linecap: round; stroke-linejoin: round; stroke: rgb(34, 36, 42); stroke-width: 2px; marker-end: url('#marker-87ffk4xremmme1irjvrsoa3li');" d="M2150,285L2157,285C2159.5,285,2162,282.5,2162,280L2162,130C2162,127.5,2164.5,125,2167,125L2325,125"/></g><path d="M2150,285L2162,285L2162,125L2325,125" class="djs-hit djs-hit-stroke" style="fill: none; stroke-opacity: 0; stroke: white; stroke-width: 15px;"/></g></g><g class="djs-group"><g class="djs-element djs-connection" data-element-id="WF09_T07_END_FLOW" style="display: block;"><g class="djs-visual"><defs><marker id="marker-8z53nt07hp47resfd4xg2n6uf" viewBox="0 0 20 20" refX="11" refY="10" markerWidth="10" markerHeight="10" orient="auto"><path d="M 1 5 L 11 10 L 1 15 Z" style="stroke-linecap: round; stroke-linejoin: round; stroke: rgb(34, 36, 42); stroke-width: 1px; fill: rgb(34, 36, 42);"/></marker></defs><path data-corner-radius="5" style="fill: none; stroke-linecap: round; stroke-linejoin: round; stroke: rgb(34, 36, 42); stroke-width: 2px; marker-end: url('#marker-8z53nt07hp47resfd4xg2n6uf');" d="M2150,445L2157,445C2159.5,445,2162,442.5,2162,440L2162,290C2162,287.5,2164.5,285,2167,285L2325,285"/></g><path d="M2150,445L2162,445L2162,285L2325,285" class="djs-hit djs-hit-stroke" style="fill: none; stroke-opacity: 0; stroke: white; stroke-width: 15px;"/></g></g><g class="djs-group"><g class="djs-element djs-connection" data-element-id="WF09_T_JOIN_WF09_T02" style="display: block;"><g class="djs-visual"><defs><marker id="marker-2g80ptdhnvo9p7tx0mg51two1" viewBox="0 0 20 20" refX="11" refY="10" markerWidth="10" markerHeight="10" orient="auto"><path d="M 1 5 L 11 10 L 1 15 Z" style="stroke-linecap: round; stroke-linejoin: round; stroke: rgb(34, 36, 42); stroke-width: 1px; fill: rgb(34, 36, 42);"/></marker></defs><path data-corner-radius="5" style="fill: none; stroke-linecap: round; stroke-linejoin: round; stroke: rgb(34, 36, 42); stroke-width: 2px; marker-end: url('#marker-2g80ptdhnvo9p7tx0mg51two1');" d="M872,125L1040,125"/></g><path d="M872,125L1040,125" class="djs-hit djs-hit-stroke" style="fill: none; stroke-opacity: 0; stroke: white; stroke-width: 15px;"/></g></g><g class="djs-group"><g class="djs-element djs-connection" data-element-id="WF09_T_START_FLOW1" style="display: block;"><g class="djs-visual"><defs><marker id="marker-6k2fpnvg5kyeu81ib86byjgr5" viewBox="0 0 20 20" refX="11" refY="10" markerWidth="10" markerHeight="10" orient="auto"><path d="M 1 5 L 11 10 L 1 15 Z" style="stroke-linecap: round; stroke-linejoin: round; stroke: rgb(34, 36, 42); stroke-width: 1px; fill: rgb(34, 36, 42);"/></marker></defs><path data-corner-radius="5" style="fill: none; stroke-linecap: round; stroke-linejoin: round; stroke: rgb(34, 36, 42); stroke-width: 2px; marker-end: url('#marker-6k2fpnvg5kyeu81ib86byjgr5');" d="M265,125L440,125"/></g><path d="M265,125L440,125" class="djs-hit djs-hit-stroke" style="fill: none; stroke-opacity: 0; stroke: white; stroke-width: 15px;"/></g></g></g></g></svg>